<svg xmlns="http://www.w3.org/2000/svg" xmlns:xlink="http://www.w3.org/1999/xlink" contentStyleType="text/css" data-diagram-type="DESCRIPTION" height="435px" preserveAspectRatio="none" style="width:830px;height:435px;background:#FAFAFA;" version="1.1" viewBox="0 0 830 435" width="830px" zoomAndPan="magnify"><?plantuml 1.2026.3beta4?><defs/><g><rect fill="#FAFAFA" height="435" style="stroke:none;stroke-width:1;" width="830" x="0" y="0"/><g class="title" data-source-line="10"><text fill="#000000" font-family="Arial" font-size="14" font-weight="700" lengthAdjust="spacing" textLength="406.3076" x="208.3495" y="22.9951">System Context - Score Update &amp; Live Leaderboard</text></g><!--entity User--><g class="entity" data-qualified-name="User" data-source-line="12" id="ent0002"><rect fill="#DDEEFF" height="50.2656" rx="2.5" ry="2.5" style="stroke:#555555;stroke-width:0.5;" width="121.1499" x="500.64" y="44.2969"/><text fill="#000000" font-family="Arial" font-size="13" lengthAdjust="spacing" textLength="29.6309" x="510.64" y="66.3638">User</text><text fill="#000000" font-family="Arial" font-size="13" lengthAdjust="spacing" textLength="101.1499" x="510.64" y="81.4966">(Browser / App)</text></g><!--entity AuthService--><g class="entity" data-qualified-name="AuthService" data-source-line="13" id="ent0003"><rect fill="#FFF9C4" height="50.2656" rx="2.5" ry="2.5" style="stroke:#555555;stroke-width:0.5;" width="160.9434" x="43.75" y="44.2969"/><text fill="#000000" font-family="Arial" font-size="13" lengthAdjust="spacing" textLength="140.9434" x="53.75" y="66.3638">External Auth Service</text><text fill="#000000" font-family="Arial" font-size="13" lengthAdjust="spacing" textLength="92.6313" x="53.75" y="81.4966">(Out of scope)</text></g><!--entity APIServer--><g class="entity" data-qualified-name="APIServer" data-source-line="14" id="ent0004"><rect fill="#C8E6C9" height="50.2656" rx="2.5" ry="2.5" style="stroke:#555555;stroke-width:0.5;" width="108.1118" x="286.16" y="196.8269"/><text fill="#000000" font-family="Arial" font-size="13" lengthAdjust="spacing" textLength="67.3296" x="296.16" y="218.8938">API Server</text><text fill="#000000" font-family="Arial" font-size="13" lengthAdjust="spacing" textLength="88.1118" x="296.16" y="234.0266">(This Module)</text></g><!--entity DB--><g class="entity" data-qualified-name="DB" data-source-line="15" id="ent0005"><path d="M6,359.3669 C6,349.3669 77.2192,349.3669 77.2192,349.3669 C77.2192,349.3669 148.4385,349.3669 148.4385,359.3669 L148.4385,400.9606 C148.4385,410.9606 77.2192,410.9606 77.2192,410.9606 C77.2192,410.9606 6,410.9606 6,400.9606 L6,359.3669" fill="#B3E5FC" style="stroke:#555555;stroke-width:0.5;"/><path d="M6,359.3669 C6,369.3669 77.2192,369.3669 77.2192,369.3669 C77.2192,369.3669 148.4385,369.3669 148.4385,359.3669" fill="none" style="stroke:#555555;stroke-width:0.5;"/><text fill="#000000" font-family="Arial" font-size="14" lengthAdjust="spacing" textLength="80.7529" x="16" y="386.362">PostgreSQL</text><text fill="#000000" font-family="Arial" font-size="14" lengthAdjust="spacing" textLength="122.4385" x="16" y="402.6589">(Persistent Store)</text></g><!--entity Redis--><g class="entity" data-qualified-name="Redis" data-source-line="16" id="ent0006"><path d="M264.3,359.3669 C264.3,349.3669 340.2224,349.3669 340.2224,349.3669 C340.2224,349.3669 416.1447,349.3669 416.1447,359.3669 L416.1447,400.9606 C416.1447,410.9606 340.2224,410.9606 340.2224,410.9606 C340.2224,410.9606 264.3,410.9606 264.3,400.9606 L264.3,359.3669" fill="#FFCCBC" style="stroke:#555555;stroke-width:0.5;"/><path d="M264.3,359.3669 C264.3,369.3669 340.2224,369.3669 340.2224,369.3669 C340.2224,369.3669 416.1447,369.3669 416.1447,359.3669" fill="none" style="stroke:#555555;stroke-width:0.5;"/><text fill="#000000" font-family="Arial" font-size="14" lengthAdjust="spacing" textLength="38.4111" x="274.3" y="386.362">Redis</text><text fill="#000000" font-family="Arial" font-size="14" lengthAdjust="spacing" textLength="131.8447" x="274.3" y="402.6589">(Cache &amp; Pub/Sub)</text></g><!--entity Clients--><g class="entity" data-qualified-name="Clients" data-source-line="17" id="ent0007"><rect fill="#DDEEFF" height="50.2656" rx="2.5" ry="2.5" style="stroke:#555555;stroke-width:0.5;" width="131.0459" x="546.7" y="355.0269"/><text fill="#000000" font-family="Arial" font-size="13" lengthAdjust="spacing" textLength="111.0459" x="556.7" y="377.0938">Other Connected</text><text fill="#000000" font-family="Arial" font-size="13" lengthAdjust="spacing" textLength="44.4082" x="556.7" y="392.2266">Clients</text></g><g class="entity" data-qualified-name="GMN14" data-source-line="27" id="ent0015"><path d="M429.1,171.5669 L429.1,217.9669 L394.46,221.9669 L429.1,225.9669 L429.1,272.3638 A0,0 0 0 0 429.1,272.3638 L675.3402,272.3638 A0,0 0 0 0 675.3402,272.3638 L675.3402,181.5669 L665.3402,171.5669 L429.1,171.5669 A0,0 0 0 0 429.1,171.5669" fill="#FFFFF0" style="stroke:#AAAAAA;stroke-width:0.5;"/><path d="M665.3402,171.5669 L665.3402,181.5669 L675.3402,181.5669 L665.3402,171.5669" fill="#FFFFF0" style="stroke:#AAAAAA;stroke-width:0.5;"/><text fill="#000000" font-family="Arial" font-size="13" lengthAdjust="spacing" textLength="121.5259" x="435.1" y="188.6338">This module owns:</text><text fill="#000000" font-family="Arial" font-size="13" lengthAdjust="spacing" textLength="194.8032" x="435.1" y="203.7666">- Score update REST endpoint</text><text fill="#000000" font-family="Arial" font-size="13" lengthAdjust="spacing" textLength="110.7666" x="435.1" y="218.8994">- WebSocket hub</text><text fill="#000000" font-family="Arial" font-size="13" lengthAdjust="spacing" textLength="91.749" x="435.1" y="234.0322">- Rate limiting</text><text fill="#000000" font-family="Arial" font-size="13" lengthAdjust="spacing" textLength="136.1382" x="435.1" y="249.165">- Idempotency guard</text><text fill="#000000" font-family="Arial" font-size="13" lengthAdjust="spacing" textLength="225.2402" x="435.1" y="264.2978">- Leaderboard cache management</text></g><g class="entity" data-qualified-name="GMN17" data-source-line="36" id="ent0018"><path d="M239.2,49.2969 L239.2,65.4369 L204.82,69.4369 L239.2,73.4369 L239.2,89.5625 A0,0 0 0 0 239.2,89.5625 L465.2483,89.5625 A0,0 0 0 0 465.2483,89.5625 L465.2483,59.2969 L455.2483,49.2969 L239.2,49.2969 A0,0 0 0 0 239.2,49.2969" fill="#FFFFF0" style="stroke:#AAAAAA;stroke-width:0.5;"/><path d="M455.2483,49.2969 L455.2483,59.2969 L465.2483,59.2969 L455.2483,49.2969" fill="#FFFFF0" style="stroke:#AAAAAA;stroke-width:0.5;"/><text fill="#000000" font-family="Arial" font-size="13" lengthAdjust="spacing" textLength="191.1724" x="245.2" y="66.3638">Tokens are issued externally.</text><text fill="#000000" font-family="Arial" font-size="13" lengthAdjust="spacing" textLength="205.0483" x="245.2" y="81.4966">This module only verifies them.</text></g><!--link User to APIServer--><g class="link" data-entity-1="ent0002" data-entity-2="ent0004" data-link-type="dependency" data-source-line="19" id="lnk8"><path d="M500.49,89.8469 C494.68,91.5169 488.85,93.1169 483.22,94.5669 C419.06,111.0469 379.08,73.2269 337.22,124.5669 C321.03,144.4169 323.6306,169.2024 329.6606,190.5724" fill="none" id="User-to-APIServer" style="stroke:#333333;stroke-width:1;"/><polygon fill="#333333" points="331.29,196.3469,332.6956,186.5988,329.9322,191.5348,324.9962,188.7714,331.29,196.3469" style="stroke:#333333;stroke-width:1;"/><text fill="#000000" font-family="Arial" font-size="13" lengthAdjust="spacing" textLength="179.5054" x="338.22" y="137.6338">POST /api/v1/scores/update</text></g><!--link User to APIServer--><g class="link" data-entity-1="ent0002" data-entity-2="ent0004" data-link-type="dependency" data-source-line="20" id="lnk9"><path d="M553.47,94.8669 C547.34,110.3869 537.27,129.7269 522.22,141.5669 C482.06,173.1669 457.54,149.9869 411.22,171.5669 C397.06,178.1569 387.5339,184.0062 375.4539,192.8362" fill="none" id="User-to-APIServer-1" style="stroke:#333333;stroke-width:1;"/><polygon fill="#333333" points="370.61,196.3769,380.2363,194.2951,374.6466,193.4263,375.5154,187.8366,370.61,196.3769" style="stroke:#333333;stroke-width:1;"/><text fill="#000000" font-family="Arial" font-size="13" lengthAdjust="spacing" textLength="124.3887" x="538.22" y="137.6338">WS /ws/scoreboard</text></g><!--link AuthService to APIServer--><g class="link" data-entity-1="ent0003" data-entity-2="ent0004" data-link-type="dependency" data-source-line="21" id="lnk10"><path d="M124.18,95.0569 C125.39,110.0669 129.28,128.7669 140.22,141.5669 C176.99,184.5969 234.3958,203.3339 279.9458,212.4139" fill="none" id="AuthService-to-APIServer" style="stroke:#333333;stroke-width:1;stroke-dasharray:7,7;"/><polygon fill="#333333" points="285.83,213.5869,277.7856,207.9046,280.9265,212.6094,276.2217,215.7502,285.83,213.5869" style="stroke:#333333;stroke-width:1;"/><text fill="#000000" font-family="Arial" font-size="13" lengthAdjust="spacing" textLength="155.8604" x="141.22" y="137.6338">issues JWT verified here</text></g><!--link APIServer to DB--><g class="link" data-entity-1="ent0004" data-entity-2="ent0005" data-link-type="dependency" data-source-line="22" id="lnk11"><path d="M286.02,228.1069 C233.65,235.8069 155.26,254.9569 106.22,302.3669 C93.41,314.7469 87.6838,327.5332 83.6538,343.3232" fill="none" id="APIServer-to-DB" style="stroke:#333333;stroke-width:1;"/><polygon fill="#333333" points="82.17,349.1369,88.2714,341.4056,83.4065,344.2922,80.5199,339.4272,82.17,349.1369" style="stroke:#333333;stroke-width:1;"/><text fill="#000000" font-family="Arial" font-size="13" lengthAdjust="spacing" textLength="221.3809" x="107.22" y="315.4338">persist score &amp; processed_actions</text></g><!--link APIServer to Redis--><g class="link" data-entity-1="ent0004" data-entity-2="ent0006" data-link-type="dependency" data-source-line="23" id="lnk12"><path d="M338.69,247.5269 C337.67,267.0069 336.61,294.9269 337.22,319.3669 C337.46,329.0269 337.6109,333.5648 338.1009,343.0648" fill="none" id="APIServer-to-Redis" style="stroke:#333333;stroke-width:1;"/><polygon fill="#333333" points="338.41,349.0569,341.9411,339.8628,338.1524,344.0635,333.9517,340.2749,338.41,349.0569" style="stroke:#333333;stroke-width:1;"/><text fill="#000000" font-family="Arial" font-size="13" lengthAdjust="spacing" textLength="230.0708" x="338.22" y="315.4338">ZADD leaderboard / PUBLISH event</text></g><!--link APIServer to Clients--><g class="link" data-entity-1="ent0004" data-entity-2="ent0007" data-link-type="dependency" data-source-line="24" id="lnk13"><path d="M369.31,247.3969 C381.56,256.5269 396.39,266.1769 411.22,272.3669 C478.79,300.5769 514.57,258.5169 573.22,302.3669 C590.23,315.0769 598.4924,331.615 604.1524,348.895" fill="none" id="APIServer-to-Clients" style="stroke:#333333;stroke-width:1;"/><polygon fill="#333333" points="606.02,354.5969,607.0198,344.7989,604.4636,349.8453,599.4173,347.2891,606.02,354.5969" style="stroke:#333333;stroke-width:1;"/><text fill="#000000" font-family="Arial" font-size="13" lengthAdjust="spacing" textLength="223.7866" x="590.22" y="315.4338">scoreboard:update via WebSocket</text></g><?plantuml-src XLDTZzem47pFhrY1LBKFa9xeLJqUAeK0AXKjAG6TL9rKESaIB18xiXqu-kkxTlZ8SIVLUObsTsPdnskzuw9YYfMGi7INArcBB9I5LD2T1lRpzAKYmmsh2pELmlna9KAWE2jQUOMfOI8lS2HLXkf4S-_EMsMMAEP_4Uu6xIxCi8Jf_v08QLvM1ExSLhoQoPwFhIgcb3oSaWDtFCzmKo34HssmX914uhE17iIfL0ZhYWGYl8CvtoFCaP64H3ALUTvbCEYiDQedyNv4vFG7FWHLzQ43J8FDG7SydaocqpPYycnG2LP0K9ijnAZsF4MYMDG6v0PqAYji66p1AUy6UWW_jOc2QERWJi1gopNya5bTdC7Hh4b2D_mo-Hm-U6U_eHD9RNA5yQyv8IDKcfC3ma1iQF06FXv1TpIOt4_35cw96TS42LcwjSv4TUB7TT8WNDBg3CDHsDQvC5jIGVOAYc7s9CA2KpVjKAV_Yr6UiwtN-zeQO0ZH8bw1pohkx-zyRQz7-xMxdxVh7sFm3xgfREwixMM__xAQQrsZXk-FAw00tt3CW2IZToso3SYI8LIDM-2eoO9AoHIrnkmFImsNGj-06bU6y3iOZw6uBX5jIhGUpMVnDy0zEN03EzioXEiCmsPYs7C6ZvZ4CjsXyJox_g1uldNhSw7n0DnEb6udG1w47bBilDqdhkM4Z4MHLPAJ1fk-CCEsJbnaQGiBNdB3HUuYimpBYjgAz0XvRUsrqTOJWTHjICa4ox6qur4Fzr1VwRtUYrKiToWqlLLiBYK3FBsMujY_dKWKn_DzQQ0TA_kNBly0?></g></svg>