<svg xmlns="http://www.w3.org/2000/svg" xmlns:xlink="http://www.w3.org/1999/xlink" contentStyleType="text/css" data-diagram-type="DESCRIPTION" height="1160px" preserveAspectRatio="none" style="width:876px;height:1160px;background:#FAFAFA;" version="1.1" viewBox="0 0 876 1160" width="876px" zoomAndPan="magnify"><?plantuml 1.2026.3beta4?><defs/><g><rect fill="#FAFAFA" height="1160" style="stroke:none;stroke-width:1;" width="876" x="0" y="0"/><g class="title" data-source-line="6"><text fill="#000000" font-family="Arial" font-size="22" font-weight="700" lengthAdjust="spacing" textLength="607.0088" x="133.8206" y="35.4209">Component Architecture - API Server (Mid-Level)</text></g><!--cluster API Server--><g class="cluster" data-qualified-name="API Server" data-source-line="8" id="ent0002"><path d="M13.5,57.6094 L97.6865,57.6094 A3.75,3.75 0 0 1 100.1865,60.1094 L107.1865,79.9063 L724.5,79.9063 A2.5,2.5 0 0 1 727,82.4063 L727,1040.2594 A2.5,2.5 0 0 1 724.5,1042.7594 L13.5,1042.7594 A2.5,2.5 0 0 1 11,1040.2594 L11,60.1094 A2.5,2.5 0 0 1 13.5,57.6094" fill="#FFFFFF" style="stroke:#000000;stroke-width:1;"/><line style="stroke:#000000;stroke-width:1;" x1="11" x2="107.1865" y1="79.9063" y2="79.9063"/><text fill="#000000" font-family="Arial" font-size="14" font-weight="700" lengthAdjust="spacing" textLength="83.1865" x="15" y="72.6045">API Server</text></g><!--cluster Transport Layer--><g class="cluster" data-qualified-name="API Server.Transport Layer" data-source-line="10" id="ent0003"><path d="M170.5,100.6094 L297.7051,100.6094 A3.75,3.75 0 0 1 300.2051,103.1094 L307.2051,122.9063 L604.5,122.9063 A2.5,2.5 0 0 1 607,125.4063 L607,201.6994 A2.5,2.5 0 0 1 604.5,204.1994 L170.5,204.1994 A2.5,2.5 0 0 1 168,201.6994 L168,103.1094 A2.5,2.5 0 0 1 170.5,100.6094" fill="#FFFFFF" style="stroke:#000000;stroke-width:1;"/><line style="stroke:#000000;stroke-width:1;" x1="168" x2="307.2051" y1="122.9063" y2="122.9063"/><text fill="#000000" font-family="Arial" font-size="14" font-weight="700" lengthAdjust="spacing" textLength="126.2051" x="172" y="115.6045">Transport Layer</text></g><!--cluster Middleware Chain--><g class="cluster" data-qualified-name="API Server.Middleware Chain" data-source-line="15" id="ent0006"><path d="M125.5,253.1994 L267.6758,253.1994 A3.75,3.75 0 0 1 270.1758,255.6994 L277.1758,275.4963 L400.5,275.4963 A2.5,2.5 0 0 1 403,277.9963 L403,597.4794 A2.5,2.5 0 0 1 400.5,599.9794 L125.5,599.9794 A2.5,2.5 0 0 1 123,597.4794 L123,255.6994 A2.5,2.5 0 0 1 125.5,253.1994" fill="#FFFFFF" style="stroke:#000000;stroke-width:1;"/><line style="stroke:#000000;stroke-width:1;" x1="123" x2="277.1758" y1="275.4963" y2="275.4963"/><text fill="#000000" font-family="Arial" font-size="14" font-weight="700" lengthAdjust="spacing" textLength="141.1758" x="127" y="268.1945">Middleware Chain</text></g><!--cluster Business Logic--><g class="cluster" data-qualified-name="API Server.Business Logic" data-source-line="21" id="ent0010"><path d="M37.5,632.9794 L154.9297,632.9794 A3.75,3.75 0 0 1 157.4297,635.4794 L164.4297,655.2763 L230.5,655.2763 A2.5,2.5 0 0 1 233,657.7763 L233,884.6694 A2.5,2.5 0 0 1 230.5,887.1694 L37.5,887.1694 A2.5,2.5 0 0 1 35,884.6694 L35,635.4794 A2.5,2.5 0 0 1 37.5,632.9794" fill="#FFFFFF" style="stroke:#000000;stroke-width:1;"/><line style="stroke:#000000;stroke-width:1;" x1="35" x2="164.4297" y1="655.2763" y2="655.2763"/><text fill="#000000" font-family="Arial" font-size="14" font-weight="700" lengthAdjust="spacing" textLength="116.4297" x="39" y="647.9745">Business Logic</text></g><!--cluster Infrastructure Adapters--><g class="cluster" data-qualified-name="API Server.Infrastructure Adapters" data-source-line="26" id="ent0013"><path d="M259.5,783.5794 L447.9961,783.5794 A3.75,3.75 0 0 1 450.4961,786.0794 L457.4961,805.8763 L700.5,805.8763 A2.5,2.5 0 0 1 703,808.3763 L703,1016.2594 A2.5,2.5 0 0 1 700.5,1018.7594 L259.5,1018.7594 A2.5,2.5 0 0 1 257,1016.2594 L257,786.0794 A2.5,2.5 0 0 1 259.5,783.5794" fill="#FFFFFF" style="stroke:#000000;stroke-width:1;"/><line style="stroke:#000000;stroke-width:1;" x1="257" x2="457.4961" y1="805.8763" y2="805.8763"/><text fill="#000000" font-family="Arial" font-size="14" font-weight="700" lengthAdjust="spacing" textLength="187.4961" x="261" y="798.5745">Infrastructure Adapters</text></g><!--entity REST--><g class="entity" data-qualified-name="API Server.Transport Layer.REST" data-source-line="11" id="ent0004"><rect fill="#FFFFFF" height="52.5938" rx="2.5" ry="2.5" style="stroke:#000000;stroke-width:1;" width="213.3135" x="184.34" y="135.6094"/><text fill="#000000" font-family="Arial" font-size="14" lengthAdjust="spacing" textLength="87.4863" x="194.34" y="158.6045">REST Router</text><text fill="#000000" font-family="Arial" font-size="14" lengthAdjust="spacing" textLength="193.3135" x="194.34" y="174.9014">POST /api/v1/scores/update</text></g><!--entity WSHandler--><g class="entity" data-qualified-name="API Server.Transport Layer.WSHandler" data-source-line="12" id="ent0005"><rect fill="#FFFFFF" height="52.5938" rx="2.5" ry="2.5" style="stroke:#000000;stroke-width:1;" width="158.2773" x="432.86" y="135.6094"/><text fill="#000000" font-family="Arial" font-size="14" lengthAdjust="spacing" textLength="138.2773" x="442.86" y="158.6045">WebSocket Handler</text><text fill="#000000" font-family="Arial" font-size="14" lengthAdjust="spacing" textLength="133.957" x="442.86" y="174.9014">WS /ws/scoreboard</text></g><!--entity AuthMW--><g class="entity" data-qualified-name="API Server.Middleware Chain.AuthMW" data-source-line="16" id="ent0007"><rect fill="#FFFFFF" height="52.5938" rx="2.5" ry="2.5" style="stroke:#000000;stroke-width:1;" width="137.9063" x="222.05" y="288.1994"/><text fill="#000000" font-family="Arial" font-size="14" lengthAdjust="spacing" textLength="117.9063" x="232.05" y="311.1945">Auth Middleware</text><text fill="#000000" font-family="Arial" font-size="14" lengthAdjust="spacing" textLength="112.1162" x="232.05" y="327.4914">(JWT Validation)</text></g><!--entity RateMW--><g class="entity" data-qualified-name="API Server.Middleware Chain.RateMW" data-source-line="17" id="ent0008"><rect fill="#FFFFFF" height="52.5938" rx="2.5" ry="2.5" style="stroke:#000000;stroke-width:1;" width="247.2471" x="139.38" y="401.7894"/><text fill="#000000" font-family="Arial" font-size="14" lengthAdjust="spacing" textLength="85.9346" x="149.38" y="424.7845">Rate Limiter</text><text fill="#000000" font-family="Arial" font-size="14" lengthAdjust="spacing" textLength="227.2471" x="149.38" y="441.0814">(Token Bucket / Sliding Window)</text></g><!--entity IdempMW--><g class="entity" data-qualified-name="API Server.Middleware Chain.IdempMW" data-source-line="18" id="ent0009"><rect fill="#FFFFFF" height="52.5938" rx="2.5" ry="2.5" style="stroke:#000000;stroke-width:1;" width="159.0703" x="161.46" y="531.3894"/><text fill="#000000" font-family="Arial" font-size="14" lengthAdjust="spacing" textLength="139.0703" x="171.46" y="554.3845">Idempotency Guard</text><text fill="#000000" font-family="Arial" font-size="14" lengthAdjust="spacing" textLength="122.3906" x="171.46" y="570.6814">(action_id dedup)</text></g><!--entity ScoreSvc--><g class="entity" data-qualified-name="API Server.Business Logic.ScoreSvc" data-source-line="22" id="ent0011"><rect fill="#FFFFFF" height="52.5938" rx="2.5" ry="2.5" style="stroke:#000000;stroke-width:1;" width="126.8184" x="90.59" y="667.9794"/><text fill="#000000" font-family="Arial" font-size="14" lengthAdjust="spacing" textLength="95.71" x="100.59" y="690.9745">Score Service</text><text fill="#000000" font-family="Arial" font-size="14" lengthAdjust="spacing" textLength="106.8184" x="100.59" y="707.2714">(Orchestration)</text></g><!--entity LBSvc--><g class="entity" data-qualified-name="API Server.Business Logic.LBSvc" data-source-line="23" id="ent0012"><rect fill="#FFFFFF" height="52.5938" rx="2.5" ry="2.5" style="stroke:#000000;stroke-width:1;" width="165.1133" x="51.44" y="818.5794"/><text fill="#000000" font-family="Arial" font-size="14" lengthAdjust="spacing" textLength="145.1133" x="61.44" y="841.5745">Leaderboard Service</text><text fill="#000000" font-family="Arial" font-size="14" lengthAdjust="spacing" textLength="97.3164" x="61.44" y="857.8714">(Top-N query)</text></g><!--entity DBRepo--><g class="entity" data-qualified-name="API Server.Infrastructure Adapters.DBRepo" data-source-line="27" id="ent0014"><rect fill="#FFFFFF" height="52.5938" rx="2.5" ry="2.5" style="stroke:#000000;stroke-width:1;" width="206.6484" x="480.68" y="818.5794"/><text fill="#000000" font-family="Arial" font-size="14" lengthAdjust="spacing" textLength="99.9072" x="490.68" y="841.5745">DB Repository</text><text fill="#000000" font-family="Arial" font-size="14" lengthAdjust="spacing" textLength="186.6484" x="490.68" y="857.8714">(users, processed_actions)</text></g><!--entity RedisAdapter--><g class="entity" data-qualified-name="API Server.Infrastructure Adapters.RedisAdapter" data-source-line="28" id="ent0015"><rect fill="#FFFFFF" height="52.5938" rx="2.5" ry="2.5" style="stroke:#000000;stroke-width:1;" width="182.7568" x="272.62" y="950.1694"/><text fill="#000000" font-family="Arial" font-size="14" lengthAdjust="spacing" textLength="98.6494" x="282.62" y="973.1645">Redis Adapter</text><text fill="#000000" font-family="Arial" font-size="14" lengthAdjust="spacing" textLength="162.7568" x="282.62" y="989.4614">(Sorted Set + Pub/Sub)</text></g><!--entity WSHub--><g class="entity" data-qualified-name="API Server.Infrastructure Adapters.WSHub" data-source-line="29" id="ent0016"><rect fill="#FFFFFF" height="52.5938" rx="2.5" ry="2.5" style="stroke:#000000;stroke-width:1;" width="172.5303" x="272.73" y="818.5794"/><text fill="#000000" font-family="Arial" font-size="14" lengthAdjust="spacing" textLength="111.4395" x="282.73" y="841.5745">WebSocket Hub</text><text fill="#000000" font-family="Arial" font-size="14" lengthAdjust="spacing" textLength="152.5303" x="282.73" y="857.8714">(Connection Registry)</text></g><!--entity PG--><g class="entity" data-qualified-name="PG" data-source-line="34" id="ent0017"><path d="M742.62,963.8194 C742.62,953.8194 792.9965,953.8194 792.9965,953.8194 C792.9965,953.8194 843.3729,953.8194 843.3729,963.8194 L843.3729,989.1163 C843.3729,999.1163 792.9965,999.1163 792.9965,999.1163 C792.9965,999.1163 742.62,999.1163 742.62,989.1163 L742.62,963.8194" fill="#FFFFFF" style="stroke:#000000;stroke-width:1;"/><path d="M742.62,963.8194 C742.62,973.8194 792.9965,973.8194 792.9965,973.8194 C792.9965,973.8194 843.3729,973.8194 843.3729,963.8194" fill="none" style="stroke:#000000;stroke-width:1;"/><text fill="#000000" font-family="Arial" font-size="14" lengthAdjust="spacing" textLength="80.7529" x="752.62" y="990.8145">PostgreSQL</text></g><!--entity RD--><g class="entity" data-qualified-name="RD" data-source-line="35" id="ent0018"><path d="M414.79,1099.7594 C414.79,1089.7594 443.9956,1089.7594 443.9956,1089.7594 C443.9956,1089.7594 473.2011,1089.7594 473.2011,1099.7594 L473.2011,1125.0563 C473.2011,1135.0563 443.9956,1135.0563 443.9956,1135.0563 C443.9956,1135.0563 414.79,1135.0563 414.79,1125.0563 L414.79,1099.7594" fill="#FFFFFF" style="stroke:#000000;stroke-width:1;"/><path d="M414.79,1099.7594 C414.79,1109.7594 443.9956,1109.7594 443.9956,1109.7594 C443.9956,1109.7594 473.2011,1109.7594 473.2011,1099.7594" fill="none" style="stroke:#000000;stroke-width:1;"/><text fill="#000000" font-family="Arial" font-size="14" lengthAdjust="spacing" textLength="38.4111" x="424.79" y="1126.7545">Redis</text></g><!--link REST to AuthMW--><g class="link" data-entity-1="ent0004" data-entity-2="ent0007" data-link-type="dependency" data-source-line="37" id="lnk19"><path d="M291,188.4494 C291,216.1394 291,254.0794 291,281.8294" fill="none" id="REST-to-AuthMW" style="stroke:#000000;stroke-width:1;"/><polygon fill="#000000" points="291,287.8294,295,278.8294,291,282.8294,287,278.8294,291,287.8294" style="stroke:#000000;stroke-width:1;"/></g><!--link AuthMW to RateMW--><g class="link" data-entity-1="ent0007" data-entity-2="ent0008" data-link-type="dependency" data-source-line="38" id="lnk20"><path d="M284.58,341.0994 C280.02,359.2494 275.4013,377.67 270.8513,395.79" fill="none" id="AuthMW-to-RateMW" style="stroke:#000000;stroke-width:1;"/><polygon fill="#000000" points="269.39,401.6094,275.4614,393.8545,270.6077,396.7599,267.7023,391.9062,269.39,401.6094" style="stroke:#000000;stroke-width:1;"/></g><!--link RateMW to IdempMW--><g class="link" data-entity-1="ent0008" data-entity-2="ent0009" data-link-type="dependency" data-source-line="39" id="lnk21"><path d="M258.6,454.6094 C254.76,476.8594 250.2504,503.0568 246.4104,525.3068" fill="none" id="RateMW-to-IdempMW" style="stroke:#000000;stroke-width:1;"/><polygon fill="#000000" points="245.39,531.2194,250.8624,523.0308,246.2404,526.2922,242.9789,521.6702,245.39,531.2194" style="stroke:#000000;stroke-width:1;"/></g><!--link IdempMW to ScoreSvc--><g class="link" data-entity-1="ent0009" data-entity-2="ent0011" data-link-type="dependency" data-source-line="40" id="lnk22"><path d="M224.43,584.3194 C208.95,608.2694 189.2269,638.7803 173.7669,662.7003" fill="none" id="IdempMW-to-ScoreSvc" style="stroke:#000000;stroke-width:1;"/><polygon fill="#000000" points="170.51,667.7394,178.7547,662.352,173.2241,663.5401,172.0359,658.0094,170.51,667.7394" style="stroke:#000000;stroke-width:1;"/></g><!--link ScoreSvc to DBRepo--><g class="link" data-entity-1="ent0011" data-entity-2="ent0014" data-link-type="dependency" data-source-line="42" id="lnk23"><path d="M217.84,701.2494 C275.83,708.2094 362.9,722.5294 434,750.5794 C477.08,767.5694 516.6797,793.4375 545.8897,814.7075" fill="none" id="ScoreSvc-to-DBRepo" style="stroke:#000000;stroke-width:1;"/><polygon fill="#000000" points="550.74,818.2394,545.8191,809.708,546.6981,815.2961,541.1099,816.1751,550.74,818.2394" style="stroke:#000000;stroke-width:1;"/><text fill="#000000" font-family="Arial" font-size="13" lengthAdjust="spacing" textLength="220.2573" x="470" y="763.6463">atomic increment + record action</text></g><!--link ScoreSvc to LBSvc--><g class="link" data-entity-1="ent0011" data-entity-2="ent0012" data-link-type="dependency" data-source-line="43" id="lnk24"><path d="M108.35,720.9394 C98.16,729.0194 88.69,738.9194 83,750.5794 C71.57,773.9594 84.1165,795.4934 101.3665,814.0634" fill="none" id="ScoreSvc-to-LBSvc" style="stroke:#000000;stroke-width:1;"/><polygon fill="#000000" points="105.45,818.4594,102.2554,809.143,102.0471,814.796,96.394,814.5877,105.45,818.4594" style="stroke:#000000;stroke-width:1;"/><text fill="#000000" font-family="Arial" font-size="13" lengthAdjust="spacing" textLength="129.3462" x="84" y="763.6463">refresh leaderboard</text></g><!--link LBSvc to RedisAdapter--><g class="link" data-entity-1="ent0012" data-entity-2="ent0015" data-link-type="dependency" data-source-line="44" id="lnk25"><path d="M159.24,871.4694 C175.72,887.1094 198.31,906.6394 221,920.1694 C240.32,931.6894 256.8665,939.4586 277.8665,947.6086" fill="none" id="LBSvc-to-RedisAdapter" style="stroke:#000000;stroke-width:1;"/><polygon fill="#000000" points="283.46,949.7794,276.5169,942.7941,278.7987,947.9704,273.6225,950.2522,283.46,949.7794" style="stroke:#000000;stroke-width:1;"/><text fill="#000000" font-family="Arial" font-size="13" lengthAdjust="spacing" textLength="131.4473" x="222" y="916.2363">ZADD / ZREVRANGE</text></g><!--link ScoreSvc to WSHub--><g class="link" data-entity-1="ent0011" data-entity-2="ent0016" data-link-type="dependency" data-source-line="45" id="lnk26"><path d="M189.24,720.8194 C226.79,748.0394 281.0422,787.3577 318.6722,814.6377" fill="none" id="ScoreSvc-to-WSHub" style="stroke:#000000;stroke-width:1;"/><polygon fill="#000000" points="323.53,818.1594,318.5911,809.6384,319.4819,815.2247,313.8956,816.1154,323.53,818.1594" style="stroke:#000000;stroke-width:1;"/><text fill="#000000" font-family="Arial" font-size="13" lengthAdjust="spacing" textLength="174.2813" x="252" y="763.6463">publish scoreboard:update</text></g><!--link WSHandler to AuthMW--><g class="link" data-entity-1="ent0005" data-entity-2="ent0007" data-link-type="dependency" data-source-line="47" id="lnk27"><path d="M474.26,188.6194 C433.58,216.3394 374.1686,256.8312 333.5386,284.5112" fill="none" id="WSHandler-to-AuthMW" style="stroke:#000000;stroke-width:1;"/><polygon fill="#000000" points="328.58,287.8894,338.2701,286.1279,332.7122,285.0742,333.7658,279.5164,328.58,287.8894" style="stroke:#000000;stroke-width:1;"/><text fill="#000000" font-family="Arial" font-size="13" lengthAdjust="spacing" textLength="99.9629" x="429" y="233.2663">JWT handshake</text></g><!--link WSHandler to WSHub--><g class="link" data-entity-1="ent0005" data-entity-2="ent0016" data-link-type="dependency" data-source-line="48" id="lnk28"><path d="M534.76,188.4894 C613.64,280.2094 861.65,596.1394 696,767.5794 C687,776.8894 475.34,771.6494 463,775.5794 C435.41,784.3394 412.9264,798.9305 393.2664,814.3905" fill="none" id="WSHandler-to-WSHub" style="stroke:#000000;stroke-width:1;"/><polygon fill="#000000" points="388.55,818.0994,398.0972,815.6804,392.4803,815.0087,393.1521,809.3918,388.55,818.0994" style="stroke:#000000;stroke-width:1;"/><text fill="#000000" font-family="Arial" font-size="13" lengthAdjust="spacing" textLength="126.1787" x="728" y="497.4563">register connection</text></g><!--link WSHub to RedisAdapter--><g class="link" data-entity-1="ent0016" data-entity-2="ent0015" data-link-type="dependency" data-source-line="49" id="lnk29"><path d="M359.99,871.4794 C360.86,894.1994 361.9103,921.2138 362.7803,943.9238" fill="none" id="WSHub-to-RedisAdapter" style="stroke:#000000;stroke-width:1;"/><polygon fill="#000000" points="363.01,949.9194,366.6625,940.7728,362.8186,944.923,358.6684,941.0791,363.01,949.9194" style="stroke:#000000;stroke-width:1;"/><text fill="#000000" font-family="Arial" font-size="13" lengthAdjust="spacing" textLength="119.9771" x="363" y="916.2363">subscribe Pub/Sub</text></g><!--link DBRepo to PG--><g class="link" data-entity-1="ent0014" data-entity-2="ent0017" data-link-type="dependency" data-source-line="51" id="lnk30"><path d="M625.54,871.6294 C664.11,895.5494 715.8304,927.618 752.3504,950.258" fill="none" id="DBRepo-to-PG" style="stroke:#000000;stroke-width:1;"/><polygon fill="#000000" points="757.45,953.4194,751.9082,945.2776,753.2004,950.7849,747.6931,952.077,757.45,953.4194" style="stroke:#000000;stroke-width:1;"/></g><!--link RedisAdapter to RD--><g class="link" data-entity-1="ent0015" data-entity-2="ent0018" data-link-type="dependency" data-source-line="52" id="lnk31"><path d="M379.24,1002.9794 C394.2,1028.0194 413.7036,1060.6781 427.8636,1084.3881" fill="none" id="RedisAdapter-to-RD" style="stroke:#000000;stroke-width:1;"/><polygon fill="#000000" points="430.94,1089.5394,429.7595,1079.7615,428.3763,1085.2466,422.8912,1083.8634,430.94,1089.5394" style="stroke:#000000;stroke-width:1;"/></g><!--link WSHub to RD--><g class="link" data-entity-1="ent0016" data-entity-2="ent0018" data-link-type="dependency" data-source-line="53" id="lnk32"><path d="M409.06,871.6394 C425.94,879.7794 445.05,888.3994 463,895.1694 C475.11,899.7294 483.21,892.8394 491,903.1694 C533.85,959.9794 489.2666,1043.6831 462.6566,1084.5031" fill="none" id="WSHub-to-RD" style="stroke:#000000;stroke-width:1;"/><polygon fill="#000000" points="459.38,1089.5294,467.6458,1084.1743,462.1105,1085.3408,460.944,1079.8055,459.38,1089.5294" style="stroke:#000000;stroke-width:1;"/><text fill="#000000" font-family="Arial" font-size="13" lengthAdjust="spacing" textLength="53.4536" x="509" y="981.0363">Pub/Sub</text></g><?plantuml-src VLHTRzem57tthxXZBwqs5Esr3vC2j5qdsZA2YbHLgXpx5Yo2dVc32atxxxkn0mIA1aWEzvvpxgVpoIznZL1NN6dcLahNtF8rb5oi5jO4BOUcCXO-t-JDjuEG-CP3vM-CzW-S57AhUDNn2xEkZKRj2x-j42mAp_MYGiQyycGOxlp454lboHyiGX_ooHqKQ3TeuU9UoVuODrXTCbPJIdo1q3i0Ul27CO2zPsQvThMn7iPyczn0dtqgq9jU5pEOck3HlkZ98_t9UAsopRVC2MFHPQ6Mt6CFk8C6UygVOraOiK8FFxYMLQCoBo1xTubV6cvb9C-B5a0AVu-If9h8_iwfsE6Ikducoppu9HnmB_hYvtm6JxnIb9mo-ZA6Q53tymyLKlemLciLIxoOcHLg68IOSmO5IIYzWBdIqhmddORnKUTE8Zrxr68Bju7A8Z4kckYlIjBqPQWJFG8Z_xZEGN1AetCmDWibpbHPD1sBarIYgV6HzW2TjvqI8wJOY5Fg6Bb46xlT4PYPkly0lmFQRQAF1ubxdDYTVhESueIqSRdaDVNAdSbmD80friOfR-oM0WH7kAzGMoEeC9IlgI4kHHiD6l27UQ1KRXU4D0fQJsoozl059g7CYb2sSsYGBV0_UnTAKXaQhJ469zf2KJLjoRHteKmbqu_MXPVSKT4Ju_o2Ulbh766Jsuul1aufZ1YBLwJV_xxRhtH4IxifwOYMtV3RCzhsGsExfsXExO4huDwibG2bXQLNZsxwG6y7GwDCxJocnHaIo-8RtSybL8VHi-IBcNLwH-3dV3IYRN-UNZzDyuVRwsF9s2D2rQ6i54aUhkvLklwCxQzlfnF4QAxXaXnkoLTu0jgfsZWFCehzZ5ZodKdKXT89gqhShG9ZRPyQC4tf21y5Hbsr4Mcqp7y0?></g></svg>