<svg xmlns="http://www.w3.org/2000/svg" xmlns:xlink="http://www.w3.org/1999/xlink" contentStyleType="text/css" data-diagram-type="SEQUENCE" height="1418px" preserveAspectRatio="none" style="width:1281px;height:1418px;background:#FAFAFA;" version="1.1" viewBox="0 0 1281 1418" width="1281px" zoomAndPan="magnify"><?plantuml 1.2026.3beta4?><defs/><g><rect fill="#FAFAFA" height="1418" style="stroke:none;stroke-width:1;" width="1281" x="0" y="0"/><g class="title" data-source-line="5"><text fill="#000000" font-family="Arial" font-size="22" font-weight="700" lengthAdjust="spacing" textLength="402.6387" x="438.5586" y="35.4209">WebSocket Connection Lifecycle</text></g><rect fill="#FFFFFF" height="75.3984" style="stroke:#000000;stroke-width:1;" width="818.7754" x="15" y="466.3672"/><g class="participant-lifeline" data-entity-uid="part1" data-qualified-name="Client" id="part1-lifeline"><g><title>Client</title><rect fill="#000000" fill-opacity="0.00000" height="1206.1797" width="8" x="44.2651" y="128.9063"/><line style="stroke:#000000;stroke-width:1;stroke-dasharray:5,5;" x1="48" x2="48" y1="128.9063" y2="1335.0859"/></g></g><g class="participant-lifeline" data-entity-uid="part2" data-qualified-name="WS" id="part2-lifeline"><g><title>WS Handler</title><rect fill="#000000" fill-opacity="0.00000" height="1206.1797" width="8" x="301.1265" y="128.9063"/><line style="stroke:#000000;stroke-width:1;stroke-dasharray:5,5;" x1="304.9741" x2="304.9741" y1="128.9063" y2="1335.0859"/></g></g><g class="participant-lifeline" data-entity-uid="part3" data-qualified-name="Auth" id="part3-lifeline"><g><title>Auth Middleware</title><rect fill="#000000" fill-opacity="0.00000" height="1206.1797" width="8" x="588.3828" y="128.9063"/><line style="stroke:#000000;stroke-width:1;stroke-dasharray:5,5;" x1="591.4297" x2="591.4297" y1="128.9063" y2="1335.0859"/></g></g><g class="participant-lifeline" data-entity-uid="part4" data-qualified-name="Hub" id="part4-lifeline"><g><title>WebSocket Hub</title><rect fill="#000000" fill-opacity="0.00000" height="1206.1797" width="8" x="747.0557" y="128.9063"/><line style="stroke:#000000;stroke-width:1;stroke-dasharray:5,5;" x1="750.3359" x2="750.3359" y1="128.9063" y2="1335.0859"/></g></g><g class="participant-lifeline" data-entity-uid="part5" data-qualified-name="Redis" id="part5-lifeline"><g><title>Redis</title><rect fill="#000000" fill-opacity="0.00000" height="1206.1797" width="8" x="1051.5142" y="128.9063"/><line style="stroke:#000000;stroke-width:1;stroke-dasharray:5,5;" x1="1054.5913" x2="1054.5913" y1="128.9063" y2="1335.0859"/></g></g><g class="participant-lifeline" data-entity-uid="part6" data-qualified-name="PubSub" id="part6-lifeline"><g><title>Redis</title><rect fill="#000000" fill-opacity="0.00000" height="1206.1797" width="8" x="1179.6816" y="128.9063"/><line style="stroke:#000000;stroke-width:1;stroke-dasharray:5,5;" x1="1183.437" x2="1183.437" y1="128.9063" y2="1335.0859"/></g></g><g class="participant participant-head" data-entity-uid="part1" data-qualified-name="Client" id="part1-head"><text fill="#000000" font-family="Arial" font-size="14" lengthAdjust="spacing" textLength="40.5303" x="25" y="125.6045">Client</text><ellipse cx="48.2651" cy="60.6094" fill="#FFFFFF" rx="8" ry="8" style="stroke:#000000;stroke-width:1;"/><path d="M48.2651,68.6094 L48.2651,95.6094 M35.2651,76.6094 L61.2651,76.6094 M48.2651,95.6094 L35.2651,110.6094 M48.2651,95.6094 L61.2651,110.6094" fill="none" style="stroke:#000000;stroke-width:1;"/></g><g class="participant participant-tail" data-entity-uid="part1" data-qualified-name="Client" id="part1-tail"><text fill="#000000" font-family="Arial" font-size="14" lengthAdjust="spacing" textLength="40.5303" x="25" y="1347.0811">Client</text><ellipse cx="48.2651" cy="1359.3828" fill="#FFFFFF" rx="8" ry="8" style="stroke:#000000;stroke-width:1;"/><path d="M48.2651,1367.3828 L48.2651,1394.3828 M35.2651,1375.3828 L61.2651,1375.3828 M48.2651,1394.3828 L35.2651,1409.3828 M48.2651,1394.3828 L61.2651,1409.3828" fill="none" style="stroke:#000000;stroke-width:1;"/></g><g class="participant participant-head" data-entity-uid="part2" data-qualified-name="WS" id="part2-head"><rect fill="#FFFFFF" height="30.2969" rx="2.5" ry="2.5" style="stroke:#000000;stroke-width:1;" width="96.3047" x="256.9741" y="97.6094"/><text fill="#000000" font-family="Arial" font-size="14" lengthAdjust="spacing" textLength="82.3047" x="263.9741" y="117.6045">WS Handler</text></g><g class="participant participant-tail" data-entity-uid="part2" data-qualified-name="WS" id="part2-tail"><rect fill="#FFFFFF" height="30.2969" rx="2.5" ry="2.5" style="stroke:#000000;stroke-width:1;" width="96.3047" x="256.9741" y="1334.0859"/><text fill="#000000" font-family="Arial" font-size="14" lengthAdjust="spacing" textLength="82.3047" x="263.9741" y="1354.0811">WS Handler</text></g><g class="participant participant-head" data-entity-uid="part3" data-qualified-name="Auth" id="part3-head"><rect fill="#FFFFFF" height="30.2969" rx="2.5" ry="2.5" style="stroke:#000000;stroke-width:1;" width="131.9063" x="526.4297" y="97.6094"/><text fill="#000000" font-family="Arial" font-size="14" lengthAdjust="spacing" textLength="117.9063" x="533.4297" y="117.6045">Auth Middleware</text></g><g class="participant participant-tail" data-entity-uid="part3" data-qualified-name="Auth" id="part3-tail"><rect fill="#FFFFFF" height="30.2969" rx="2.5" ry="2.5" style="stroke:#000000;stroke-width:1;" width="131.9063" x="526.4297" y="1334.0859"/><text fill="#000000" font-family="Arial" font-size="14" lengthAdjust="spacing" textLength="117.9063" x="533.4297" y="1354.0811">Auth Middleware</text></g><g class="participant participant-head" data-entity-uid="part4" data-qualified-name="Hub" id="part4-head"><rect fill="#FFFFFF" height="30.2969" rx="2.5" ry="2.5" style="stroke:#000000;stroke-width:1;" width="125.4395" x="688.3359" y="97.6094"/><text fill="#000000" font-family="Arial" font-size="14" lengthAdjust="spacing" textLength="111.4395" x="695.3359" y="117.6045">WebSocket Hub</text></g><g class="participant participant-tail" data-entity-uid="part4" data-qualified-name="Hub" id="part4-tail"><rect fill="#FFFFFF" height="30.2969" rx="2.5" ry="2.5" style="stroke:#000000;stroke-width:1;" width="125.4395" x="688.3359" y="1334.0859"/><text fill="#000000" font-family="Arial" font-size="14" lengthAdjust="spacing" textLength="111.4395" x="695.3359" y="1354.0811">WebSocket Hub</text></g><g class="participant participant-head" data-entity-uid="part5" data-qualified-name="Redis" id="part5-head"><rect fill="#FFFFFF" height="46.5938" rx="2.5" ry="2.5" style="stroke:#000000;stroke-width:1;" width="113.8457" x="998.5913" y="81.3125"/><text fill="#000000" font-family="Arial" font-size="14" lengthAdjust="spacing" textLength="38.4111" x="1036.3086" y="101.3076">Redis</text><text fill="#000000" font-family="Arial" font-size="14" lengthAdjust="spacing" textLength="99.8457" x="1005.5913" y="117.6045">(Leaderboard)</text></g><g class="participant participant-tail" data-entity-uid="part5" data-qualified-name="Redis" id="part5-tail"><rect fill="#FFFFFF" height="46.5938" rx="2.5" ry="2.5" style="stroke:#000000;stroke-width:1;" width="113.8457" x="998.5913" y="1334.0859"/><text fill="#000000" font-family="Arial" font-size="14" lengthAdjust="spacing" textLength="38.4111" x="1036.3086" y="1354.0811">Redis</text><text fill="#000000" font-family="Arial" font-size="14" lengthAdjust="spacing" textLength="99.8457" x="1005.5913" y="1370.3779">(Leaderboard)</text></g><g class="participant participant-head" data-entity-uid="part6" data-qualified-name="PubSub" id="part6-head"><rect fill="#FFFFFF" height="46.5938" rx="2.5" ry="2.5" style="stroke:#000000;stroke-width:1;" width="82.4893" x="1142.437" y="81.3125"/><text fill="#000000" font-family="Arial" font-size="14" lengthAdjust="spacing" textLength="38.4111" x="1164.4761" y="101.3076">Redis</text><text fill="#000000" font-family="Arial" font-size="14" lengthAdjust="spacing" textLength="68.4893" x="1149.437" y="117.6045">(Pub/Sub)</text></g><g class="participant participant-tail" data-entity-uid="part6" data-qualified-name="PubSub" id="part6-tail"><rect fill="#FFFFFF" height="46.5938" rx="2.5" ry="2.5" style="stroke:#000000;stroke-width:1;" width="82.4893" x="1142.437" y="1334.0859"/><text fill="#000000" font-family="Arial" font-size="14" lengthAdjust="spacing" textLength="38.4111" x="1164.4761" y="1354.0811">Redis</text><text fill="#000000" font-family="Arial" font-size="14" lengthAdjust="spacing" textLength="68.4893" x="1149.437" y="1370.3779">(Pub/Sub)</text></g><rect fill="#FFFFFF" height="3" style="stroke:#FFFFFF;stroke-width:1;" width="1270.7559" x="5" y="159.4727"/><line style="stroke:#000000;stroke-width:0.5;" x1="5" x2="1275.7559" y1="159.4727" y2="159.4727"/><line style="stroke:#000000;stroke-width:0.5;" x1="5" x2="1275.7559" y1="162.4727" y2="162.4727"/><rect fill="#FFFFFF" height="23.1328" style="stroke:#000000;stroke-width:1;" width="210.0601" x="535.3479" y="148.9063"/><text fill="#000000" font-family="Arial" font-size="13" font-weight="700" lengthAdjust="spacing" textLength="191.5342" x="541.3479" y="164.9731">Connection Establishment</text><g class="message" data-entity-1="part1" data-entity-2="part2" id="msg1"><polygon fill="#000000" points="293.1265,214.3047,303.1265,218.3047,293.1265,222.3047,297.1265,218.3047" style="stroke:#000000;stroke-width:1;"/><line style="stroke:#000000;stroke-width:1;" x1="48.2651" x2="299.1265" y1="218.3047" y2="218.3047"/><text fill="#000000" font-family="Arial" font-size="13" lengthAdjust="spacing" textLength="93.209" x="55.2651" y="198.106">HTTP Upgrade</text><text fill="#000000" font-family="Arial" font-size="13" lengthAdjust="spacing" textLength="230.5342" x="55.2651" y="213.2388">GET /ws/scoreboard?token=&lt;JWT&gt;</text></g><g class="message" data-entity-1="part2" data-entity-2="part3" id="msg2"><polygon fill="#000000" points="580.3828,243.4375,590.3828,247.4375,580.3828,251.4375,584.3828,247.4375" style="stroke:#000000;stroke-width:1;"/><line style="stroke:#000000;stroke-width:1;" x1="305.1265" x2="586.3828" y1="247.4375" y2="247.4375"/><text fill="#000000" font-family="Arial" font-size="13" lengthAdjust="spacing" textLength="263.2563" x="312.1265" y="242.3716">Validate JWT from query param / header</text></g><g class="message" data-entity-1="part3" data-entity-2="part2" id="msg3"><polygon fill="#000000" points="316.1265,272.5703,306.1265,276.5703,316.1265,280.5703,312.1265,276.5703" style="stroke:#000000;stroke-width:1;"/><line style="stroke:#000000;stroke-width:1;stroke-dasharray:2,2;" x1="310.1265" x2="591.3828" y1="276.5703" y2="276.5703"/><text fill="#000000" font-family="Arial" font-size="13" lengthAdjust="spacing" textLength="155.8794" x="322.1265" y="271.5044">user_id (or 401 &#8594; close)</text></g><g class="message" data-entity-1="part2" data-entity-2="part4" id="msg4"><polygon fill="#000000" points="739.0557,301.7031,749.0557,305.7031,739.0557,309.7031,743.0557,305.7031" style="stroke:#000000;stroke-width:1;"/><line style="stroke:#000000;stroke-width:1;" x1="305.1265" x2="745.0557" y1="305.7031" y2="305.7031"/><text fill="#000000" font-family="Arial" font-size="13" lengthAdjust="spacing" textLength="150.814" x="312.1265" y="300.6372">Register(conn, user_id)</text></g><g class="message" data-entity-1="part4" data-entity-2="part5" id="msg5"><polygon fill="#000000" points="1043.5142,330.8359,1053.5142,334.8359,1043.5142,338.8359,1047.5142,334.8359" style="stroke:#000000;stroke-width:1;"/><line style="stroke:#000000;stroke-width:1;" x1="751.0557" x2="1049.5142" y1="334.8359" y2="334.8359"/><text fill="#000000" font-family="Arial" font-size="13" lengthAdjust="spacing" textLength="280.4585" x="758.0557" y="329.77">ZREVRANGE leaderboard 0 9 WITHSCORES</text></g><g class="message" data-entity-1="part5" data-entity-2="part4" id="msg6"><polygon fill="#000000" points="762.0557,359.9688,752.0557,363.9688,762.0557,367.9688,758.0557,363.9688" style="stroke:#000000;stroke-width:1;"/><line style="stroke:#000000;stroke-width:1;stroke-dasharray:2,2;" x1="756.0557" x2="1054.5142" y1="363.9688" y2="363.9688"/><text fill="#000000" font-family="Arial" font-size="13" lengthAdjust="spacing" textLength="47.9883" x="768.0557" y="358.9028">top10[]</text></g><g class="message" data-entity-1="part4" data-entity-2="part1" id="msg7"><polygon fill="#000000" points="59.2651,404.2344,49.2651,408.2344,59.2651,412.2344,55.2651,408.2344" style="stroke:#000000;stroke-width:1;"/><line style="stroke:#000000;stroke-width:1;" x1="53.2651" x2="750.0557" y1="408.2344" y2="408.2344"/><text fill="#000000" font-family="Arial" font-size="13" lengthAdjust="spacing" textLength="133.3071" x="65.2651" y="388.0356">[WS] scoreboard:init</text><text fill="#000000" font-family="Arial" font-size="13" lengthAdjust="spacing" textLength="72.7949" x="65.2651" y="403.1685">{ top10[] }</text></g><rect fill="#FFFFFF" height="3" style="stroke:#FFFFFF;stroke-width:1;" width="1270.7559" x="5" y="436.8008"/><line style="stroke:#000000;stroke-width:0.5;" x1="5" x2="1275.7559" y1="436.8008" y2="436.8008"/><line style="stroke:#000000;stroke-width:0.5;" x1="5" x2="1275.7559" y1="439.8008" y2="439.8008"/><rect fill="#FFFFFF" height="23.1328" style="stroke:#000000;stroke-width:1;" width="181.1274" x="549.8142" y="426.2344"/><text fill="#000000" font-family="Arial" font-size="13" font-weight="700" lengthAdjust="spacing" textLength="162.6016" x="555.8142" y="442.3013">Heartbeat (Keepalive)</text><path d="M15,466.3672 L91.624,466.3672 L91.624,473.5 L81.624,483.5 L15,483.5 L15,466.3672" fill="#FFFFFF" style="stroke:#000000;stroke-width:1;"/><rect fill="none" height="75.3984" style="stroke:#000000;stroke-width:1;" width="818.7754" x="15" y="466.3672"/><text fill="#000000" font-family="Arial" font-size="13" font-weight="700" lengthAdjust="spacing" textLength="31.624" x="30" y="479.4341">loop</text><text fill="#000000" font-family="Arial" font-size="11" font-weight="700" lengthAdjust="spacing" textLength="118.0996" x="106.624" y="478.5776">[Every 30 seconds]</text><g class="message" data-entity-1="part4" data-entity-2="part1" id="msg8"><polygon fill="#000000" points="59.2651,500.6328,49.2651,504.6328,59.2651,508.6328,55.2651,504.6328" style="stroke:#000000;stroke-width:1;"/><line style="stroke:#000000;stroke-width:1;" x1="53.2651" x2="750.0557" y1="504.6328" y2="504.6328"/><text fill="#000000" font-family="Arial" font-size="13" lengthAdjust="spacing" textLength="74.1533" x="65.2651" y="499.5669">PING frame</text></g><g class="message" data-entity-1="part1" data-entity-2="part4" id="msg9"><polygon fill="#000000" points="739.0557,529.7656,749.0557,533.7656,739.0557,537.7656,743.0557,533.7656" style="stroke:#000000;stroke-width:1;"/><line style="stroke:#000000;stroke-width:1;" x1="48.2651" x2="745.0557" y1="533.7656" y2="533.7656"/><text fill="#000000" font-family="Arial" font-size="13" lengthAdjust="spacing" textLength="80.5518" x="55.2651" y="528.6997">PONG frame</text></g><rect fill="#FFFFFF" height="3" style="stroke:#FFFFFF;stroke-width:1;" width="1270.7559" x="5" y="569.332"/><line style="stroke:#000000;stroke-width:0.5;" x1="5" x2="1275.7559" y1="569.332" y2="569.332"/><line style="stroke:#000000;stroke-width:0.5;" x1="5" x2="1275.7559" y1="572.332" y2="572.332"/><rect fill="#FFFFFF" height="23.1328" style="stroke:#000000;stroke-width:1;" width="407.6182" x="436.5688" y="558.7656"/><text fill="#000000" font-family="Arial" font-size="13" font-weight="700" lengthAdjust="spacing" textLength="389.0923" x="442.5688" y="574.8325">Score Update Broadcast (triggered by Score Service)</text><path d="M1095,596.8984 L1095,636.8984 L1270,636.8984 L1270,606.8984 L1260,596.8984 L1095,596.8984" fill="#FFFFFF" style="stroke:#000000;stroke-width:1;"/><path d="M1260,596.8984 L1260,606.8984 L1270,606.8984 L1260,596.8984" fill="#FFFFFF" style="stroke:#000000;stroke-width:1;"/><text fill="#000000" font-family="Arial" font-size="13" lengthAdjust="spacing" textLength="154.7559" x="1101" y="613.9653">Score Service publishes</text><text fill="#000000" font-family="Arial" font-size="13" lengthAdjust="spacing" textLength="152.3311" x="1101" y="629.0981">after successful update</text><g class="message" data-entity-1="part6" data-entity-2="part4" id="msg10"><polygon fill="#000000" points="762.0557,674.4297,752.0557,678.4297,762.0557,682.4297,758.0557,678.4297" style="stroke:#000000;stroke-width:1;"/><line style="stroke:#000000;stroke-width:1;" x1="756.0557" x2="1182.6816" y1="678.4297" y2="678.4297"/><text fill="#000000" font-family="Arial" font-size="13" lengthAdjust="spacing" textLength="185.7261" x="768.0557" y="658.231">scoreboard:update message</text><text fill="#000000" font-family="Arial" font-size="13" lengthAdjust="spacing" textLength="72.7949" x="768.0557" y="673.3638">{ top10[] }</text></g><g class="message" data-entity-1="part4" data-entity-2="part1" id="msg11"><polygon fill="#000000" points="59.2651,718.6953,49.2651,722.6953,59.2651,726.6953,55.2651,722.6953" style="stroke:#000000;stroke-width:1;"/><line style="stroke:#000000;stroke-width:1;" x1="53.2651" x2="750.0557" y1="722.6953" y2="722.6953"/><text fill="#000000" font-family="Arial" font-size="13" lengthAdjust="spacing" textLength="158.5518" x="65.2651" y="702.4966">[WS] scoreboard:update</text><text fill="#000000" font-family="Arial" font-size="13" lengthAdjust="spacing" textLength="72.7949" x="65.2651" y="717.6294">{ top10[] }</text></g><path d="M756,735.6953 L756,790.6953 L926,790.6953 L926,745.6953 L916,735.6953 L756,735.6953" fill="#FFFFFF" style="stroke:#000000;stroke-width:1;"/><path d="M916,735.6953 L916,745.6953 L926,745.6953 L916,735.6953" fill="#FFFFFF" style="stroke:#000000;stroke-width:1;"/><text fill="#000000" font-family="Arial" font-size="13" lengthAdjust="spacing" textLength="110.1128" x="762" y="752.7622">Broadcast to ALL</text><text fill="#000000" font-family="Arial" font-size="13" lengthAdjust="spacing" textLength="149.2017" x="762" y="767.895">registered connections</text><text fill="#000000" font-family="Arial" font-size="13" lengthAdjust="spacing" textLength="148.5352" x="762" y="783.0278">on this server instance</text><rect fill="#FFFFFF" height="3" style="stroke:#FFFFFF;stroke-width:1;" width="1270.7559" x="5" y="816.6602"/><line style="stroke:#000000;stroke-width:0.5;" x1="5" x2="1275.7559" y1="816.6602" y2="816.6602"/><line style="stroke:#000000;stroke-width:0.5;" x1="5" x2="1275.7559" y1="819.6602" y2="819.6602"/><rect fill="#FFFFFF" height="23.1328" style="stroke:#000000;stroke-width:1;" width="110.5542" x="585.1008" y="806.0938"/><text fill="#000000" font-family="Arial" font-size="13" font-weight="700" lengthAdjust="spacing" textLength="92.0283" x="591.1008" y="822.1606">Idle Timeout</text><g class="message" data-entity-1="part4" data-entity-2="part4" id="msg12"><line style="stroke:#000000;stroke-width:1;" x1="751.0557" x2="793.0557" y1="875.4922" y2="875.4922"/><line style="stroke:#000000;stroke-width:1;" x1="793.0557" x2="793.0557" y1="875.4922" y2="888.4922"/><line style="stroke:#000000;stroke-width:1;" x1="752.0557" x2="793.0557" y1="888.4922" y2="888.4922"/><polygon fill="#000000" points="762.0557,884.4922,752.0557,888.4922,762.0557,892.4922,758.0557,888.4922" style="stroke:#000000;stroke-width:1;"/><text fill="#000000" font-family="Arial" font-size="13" lengthAdjust="spacing" textLength="119.8564" x="758.0557" y="855.2935">No PONG received</text><text fill="#000000" font-family="Arial" font-size="13" lengthAdjust="spacing" textLength="60.3472" x="758.0557" y="870.4263">for &gt; 60s</text></g><g class="message" data-entity-1="part4" data-entity-2="part1" id="msg13"><polygon fill="#000000" points="59.2651,913.625,49.2651,917.625,59.2651,921.625,55.2651,917.625" style="stroke:#000000;stroke-width:1;"/><line style="stroke:#000000;stroke-width:1;" x1="53.2651" x2="750.0557" y1="917.625" y2="917.625"/><text fill="#000000" font-family="Arial" font-size="13" lengthAdjust="spacing" textLength="160.9385" x="65.2651" y="912.5591">Close frame (code 1000)</text></g><g class="message" data-entity-1="part4" data-entity-2="part4" id="msg14"><line style="stroke:#000000;stroke-width:1;" x1="751.0557" x2="793.0557" y1="946.7578" y2="946.7578"/><line style="stroke:#000000;stroke-width:1;" x1="793.0557" x2="793.0557" y1="946.7578" y2="959.7578"/><line style="stroke:#000000;stroke-width:1;" x1="752.0557" x2="793.0557" y1="959.7578" y2="959.7578"/><polygon fill="#000000" points="762.0557,955.7578,752.0557,959.7578,762.0557,963.7578,758.0557,959.7578" style="stroke:#000000;stroke-width:1;"/><text fill="#000000" font-family="Arial" font-size="13" lengthAdjust="spacing" textLength="110.1509" x="758.0557" y="941.6919">Deregister(conn)</text></g><rect fill="#FFFFFF" height="3" style="stroke:#FFFFFF;stroke-width:1;" width="1270.7559" x="5" y="988.3242"/><line style="stroke:#000000;stroke-width:0.5;" x1="5" x2="1275.7559" y1="988.3242" y2="988.3242"/><line style="stroke:#000000;stroke-width:0.5;" x1="5" x2="1275.7559" y1="991.3242" y2="991.3242"/><rect fill="#FFFFFF" height="23.1328" style="stroke:#000000;stroke-width:1;" width="210.5996" x="535.0781" y="977.7578"/><text fill="#000000" font-family="Arial" font-size="13" font-weight="700" lengthAdjust="spacing" textLength="192.0737" x="541.0781" y="993.8247">Client Reconnect Strategy</text><g class="message" data-entity-1="part1" data-entity-2="part1" id="msg15"><line style="stroke:#000000;stroke-width:1;" x1="48.2651" x2="90.2651" y1="1032.0234" y2="1032.0234"/><line style="stroke:#000000;stroke-width:1;" x1="90.2651" x2="90.2651" y1="1032.0234" y2="1045.0234"/><line style="stroke:#000000;stroke-width:1;" x1="49.2651" x2="90.2651" y1="1045.0234" y2="1045.0234"/><polygon fill="#000000" points="59.2651,1041.0234,49.2651,1045.0234,59.2651,1049.0234,55.2651,1045.0234" style="stroke:#000000;stroke-width:1;"/><text fill="#000000" font-family="Arial" font-size="13" lengthAdjust="spacing" textLength="125.5947" x="55.2651" y="1026.9575">Detect close / error</text></g><g class="message" data-entity-1="part1" data-entity-2="part1" id="msg16"><line style="stroke:#000000;stroke-width:1;" x1="48.2651" x2="90.2651" y1="1089.2891" y2="1089.2891"/><line style="stroke:#000000;stroke-width:1;" x1="90.2651" x2="90.2651" y1="1089.2891" y2="1102.2891"/><line style="stroke:#000000;stroke-width:1;" x1="49.2651" x2="90.2651" y1="1102.2891" y2="1102.2891"/><polygon fill="#000000" points="59.2651,1098.2891,49.2651,1102.2891,59.2651,1106.2891,55.2651,1102.2891" style="stroke:#000000;stroke-width:1;"/><text fill="#000000" font-family="Arial" font-size="13" lengthAdjust="spacing" textLength="197.9199" x="55.2651" y="1069.0903">Wait: 1s &#8594; 2s &#8594; 4s ... max 30s</text><text fill="#000000" font-family="Arial" font-size="13" lengthAdjust="spacing" textLength="138.9375" x="55.2651" y="1084.2231">(exponential backoff)</text></g><g class="message" data-entity-1="part1" data-entity-2="part2" id="msg17"><polygon fill="#000000" points="293.1265,1127.4219,303.1265,1131.4219,293.1265,1135.4219,297.1265,1131.4219" style="stroke:#000000;stroke-width:1;"/><line style="stroke:#000000;stroke-width:1;" x1="48.2651" x2="299.1265" y1="1131.4219" y2="1131.4219"/><text fill="#000000" font-family="Arial" font-size="13" lengthAdjust="spacing" textLength="166.3911" x="55.2651" y="1126.356">Reconnect with fresh JWT</text></g><rect fill="#FFFFFF" height="3" style="stroke:#FFFFFF;stroke-width:1;" width="1270.7559" x="5" y="1159.9883"/><line style="stroke:#000000;stroke-width:0.5;" x1="5" x2="1275.7559" y1="1159.9883" y2="1159.9883"/><line style="stroke:#000000;stroke-width:0.5;" x1="5" x2="1275.7559" y1="1162.9883" y2="1162.9883"/><rect fill="#FFFFFF" height="23.1328" style="stroke:#000000;stroke-width:1;" width="228.3032" x="526.2263" y="1149.4219"/><text fill="#000000" font-family="Arial" font-size="13" font-weight="700" lengthAdjust="spacing" textLength="209.7773" x="532.2263" y="1165.4888">Token Expiry During Session</text><g class="message" data-entity-1="part4" data-entity-2="part4" id="msg18"><line style="stroke:#000000;stroke-width:1;" x1="751.0557" x2="793.0557" y1="1203.6875" y2="1203.6875"/><line style="stroke:#000000;stroke-width:1;" x1="793.0557" x2="793.0557" y1="1203.6875" y2="1216.6875"/><line style="stroke:#000000;stroke-width:1;" x1="752.0557" x2="793.0557" y1="1216.6875" y2="1216.6875"/><polygon fill="#000000" points="762.0557,1212.6875,752.0557,1216.6875,762.0557,1220.6875,758.0557,1216.6875" style="stroke:#000000;stroke-width:1;"/><text fill="#000000" font-family="Arial" font-size="13" lengthAdjust="spacing" textLength="156.311" x="758.0557" y="1198.6216">Detect JWT exp &lt; now()</text></g><g class="message" data-entity-1="part4" data-entity-2="part1" id="msg19"><polygon fill="#000000" points="59.2651,1241.8203,49.2651,1245.8203,59.2651,1249.8203,55.2651,1245.8203" style="stroke:#000000;stroke-width:1;"/><line style="stroke:#000000;stroke-width:1;" x1="53.2651" x2="750.0557" y1="1245.8203" y2="1245.8203"/><text fill="#000000" font-family="Arial" font-size="13" lengthAdjust="spacing" textLength="272.3018" x="65.2651" y="1240.7544">Close frame (code 4001 &#8212; token expired)</text></g><g class="message" data-entity-1="part1" data-entity-2="part1" id="msg20"><line style="stroke:#000000;stroke-width:1;" x1="48.2651" x2="90.2651" y1="1274.9531" y2="1274.9531"/><line style="stroke:#000000;stroke-width:1;" x1="90.2651" x2="90.2651" y1="1274.9531" y2="1287.9531"/><line style="stroke:#000000;stroke-width:1;" x1="49.2651" x2="90.2651" y1="1287.9531" y2="1287.9531"/><polygon fill="#000000" points="59.2651,1283.9531,49.2651,1287.9531,59.2651,1291.9531,55.2651,1287.9531" style="stroke:#000000;stroke-width:1;"/><text fill="#000000" font-family="Arial" font-size="13" lengthAdjust="spacing" textLength="242.8613" x="55.2651" y="1269.8872">Obtain fresh token from Auth Service</text></g><g class="message" data-entity-1="part1" data-entity-2="part2" id="msg21"><polygon fill="#000000" points="293.1265,1313.0859,303.1265,1317.0859,293.1265,1321.0859,297.1265,1317.0859" style="stroke:#000000;stroke-width:1;"/><line style="stroke:#000000;stroke-width:1;" x1="48.2651" x2="299.1265" y1="1317.0859" y2="1317.0859"/><text fill="#000000" font-family="Arial" font-size="13" lengthAdjust="spacing" textLength="160.3291" x="55.2651" y="1312.02">Reconnect with new JWT</text></g><?plantuml-src ZLN1RjD04BtxAuPoYINQE50X4JL58GrDeRHL71g9faBhzJXPrTark-kc4KBYn0SWlf0lONRjfabRgIW79zuti_FUl9ayipES8nGv4p8mLq8MJBCv98nVJRKgPTfJkTBm_7tNVTOGAMQipErx9Uq9emnTBLWU15RO766CIQpu5LheAIcHMw4a78iC-PBd60ICMqgwrSi5Ihi5p43rDQ3SLd1HC6bXQnp3WCaqH-qXutZpk5lQ6NmIAG4MJAF7k7VtagnA6PI9nz1p4pB4L9Y9R1mZIr4dYkaqz4X_y3Zsh4oQSPbKEFf1tuEWqrddspUM9RamipanWqud22gIiBrFNA0DWz7e33uNKqtNJkHXVmJDXMaQhZJw8jvQTOMoi_TXFDeFA8BYFESsdBDSfCmYq15aMitXMubw2LLhcZ3pJ0AFthwzhZIelueK6YJzRjI2lxz-0y-LmR1EJi8GR8XJOIpg1YSgBswZmi2T4iWBGB0lm_xvi7jos8VyJZQ8u0sCZqQ3k7SwxCT11TvUvRQgQ4KNbxUvQZtQS36EB-6EU5j8OIVo-oqUVdXj1qYTI91PQ7n4B4Y3QmoziBbI1VIldGIl8Z18fQSc0BX_pzdHoI7fHNwbmxjkLCMTdQuEKQR-njYLH2toMh_JYgMS6RhUQZ6TeiOKacKDYb5V2rxN8nNX5TLJMuEoRw2WABqpaAp4CX8RJCav6fELEPJ-kg2EN9Mt9a-5W3a5i2bk2lMKj5NiPemlboZDBAZCpmUiiRKAkiV7z4hNpY3QV6Lp9pEPtSweqMGLnrb8ShxaNaPmkRsMHpIdC19pL6Kr3ODrTYUgqbyZHsfhEf4PsNGVNaVc0QMUCstLAI2NfWYjA8h2pOG7gDUD75RJMQKOObq_n5QJ6jFblV5SNNM0ri7ycD1SeTPAFuORCs7Rq39-g5vMZrq3EpixC6StP4gtC_2cK9Bmj2ZzWbLP5jxV2NUbBGGDRwRHpDoK-_97RXz0_wOGPFI3KWiv9KSPuxRD0qNhqjs6e8jXZpgnQ8J_8UPkv9R3pp_WruyB5jJoy37Qfucb_uswoWhkjv5VFBNNds0eSU5g_0S0?></g></svg>