<svg xmlns="http://www.w3.org/2000/svg" xmlns:xlink="http://www.w3.org/1999/xlink" contentStyleType="text/css" data-diagram-type="DESCRIPTION" height="549px" preserveAspectRatio="none" style="width:1927px;height:549px;background:#FAFAFA;" version="1.1" viewBox="0 0 1927 549" width="1927px" zoomAndPan="magnify"><?plantuml 1.2026.3beta4?><defs/><g><rect fill="#FAFAFA" height="549" style="stroke:none;stroke-width:1;" width="1927" x="0" y="0"/><g class="title" data-source-line="5"><text fill="#000000" font-family="Arial" font-size="22" font-weight="700" lengthAdjust="spacing" textLength="938.8672" x="493.1514" y="35.4209">Horizontal Scaling - Multi-Instance WebSocket Broadcast via Redis Pub/Sub</text></g><!--cluster S1--><g class="cluster" data-qualified-name="S1" data-source-line="13" id="ent0006"><polygon fill="#FFFFFF" points="770,306.4994,780,296.4994,1081,296.4994,1081,388.7994,1071,398.7994,770,398.7994,770,306.4994" style="stroke:#000000;stroke-width:1;"/><line style="stroke:#000000;stroke-width:1;" x1="1071" x2="1081" y1="306.4994" y2="296.4994"/><line style="stroke:#000000;stroke-width:1;" x1="770" x2="1071" y1="306.4994" y2="306.4994"/><line style="stroke:#000000;stroke-width:1;" x1="1071" x2="1071" y1="306.4994" y2="398.7994"/><text fill="#000000" font-family="Arial" font-size="14" font-weight="700" lengthAdjust="spacing" textLength="170.085" x="836.4575" y="322.4945">API Server Instance 1</text></g><!--cluster S2--><g class="cluster" data-qualified-name="S2" data-source-line="18" id="ent0009"><polygon fill="#FFFFFF" points="21,306.4994,31,296.4994,267,296.4994,267,388.7994,257,398.7994,21,398.7994,21,306.4994" style="stroke:#000000;stroke-width:1;"/><line style="stroke:#000000;stroke-width:1;" x1="257" x2="267" y1="306.4994" y2="296.4994"/><line style="stroke:#000000;stroke-width:1;" x1="21" x2="257" y1="306.4994" y2="306.4994"/><line style="stroke:#000000;stroke-width:1;" x1="257" x2="257" y1="306.4994" y2="398.7994"/><text fill="#000000" font-family="Arial" font-size="14" font-weight="700" lengthAdjust="spacing" textLength="170.085" x="54.9575" y="322.4945">API Server Instance 2</text></g><!--cluster S3--><g class="cluster" data-qualified-name="S3" data-source-line="22" id="ent0011"><polygon fill="#FFFFFF" points="1569,306.4994,1579,296.4994,1815,296.4994,1815,388.7994,1805,398.7994,1569,398.7994,1569,306.4994" style="stroke:#000000;stroke-width:1;"/><line style="stroke:#000000;stroke-width:1;" x1="1805" x2="1815" y1="306.4994" y2="296.4994"/><line style="stroke:#000000;stroke-width:1;" x1="1569" x2="1805" y1="306.4994" y2="306.4994"/><line style="stroke:#000000;stroke-width:1;" x1="1805" x2="1805" y1="306.4994" y2="398.7994"/><text fill="#000000" font-family="Arial" font-size="14" font-weight="700" lengthAdjust="spacing" textLength="170.085" x="1602.9575" y="322.4945">API Server Instance 3</text></g><!--entity WS1--><g class="entity" data-qualified-name="S1.WS1" data-source-line="14" id="ent0007"><rect fill="#FFFFFF" height="46.2969" rx="2.5" ry="2.5" style="stroke:#000000;stroke-width:1;" width="108.8242" x="956.59" y="336.4994"/><rect fill="#FFFFFF" height="10" style="stroke:#000000;stroke-width:1;" width="15" x="1045.4142" y="341.4994"/><rect fill="#FFFFFF" height="2" style="stroke:#000000;stroke-width:1;" width="4" x="1043.4142" y="343.4994"/><rect fill="#FFFFFF" height="2" style="stroke:#000000;stroke-width:1;" width="4" x="1043.4142" y="347.4994"/><text fill="#000000" font-family="Arial" font-size="14" lengthAdjust="spacing" textLength="68.8242" x="971.59" y="369.4945">WS Hub 1</text></g><!--entity SS1--><g class="entity" data-qualified-name="S1.SS1" data-source-line="15" id="ent0008"><rect fill="#FFFFFF" height="46.2969" rx="2.5" ry="2.5" style="stroke:#000000;stroke-width:1;" width="135.71" x="786.15" y="336.4994"/><rect fill="#FFFFFF" height="10" style="stroke:#000000;stroke-width:1;" width="15" x="901.86" y="341.4994"/><rect fill="#FFFFFF" height="2" style="stroke:#000000;stroke-width:1;" width="4" x="899.86" y="343.4994"/><rect fill="#FFFFFF" height="2" style="stroke:#000000;stroke-width:1;" width="4" x="899.86" y="347.4994"/><text fill="#000000" font-family="Arial" font-size="14" lengthAdjust="spacing" textLength="95.71" x="801.15" y="369.4945">Score Service</text></g><!--entity WS2--><g class="entity" data-qualified-name="S2.WS2" data-source-line="19" id="ent0010"><rect fill="#FFFFFF" height="46.2969" rx="2.5" ry="2.5" style="stroke:#000000;stroke-width:1;" width="108.8242" x="140.59" y="336.4994"/><rect fill="#FFFFFF" height="10" style="stroke:#000000;stroke-width:1;" width="15" x="229.4142" y="341.4994"/><rect fill="#FFFFFF" height="2" style="stroke:#000000;stroke-width:1;" width="4" x="227.4142" y="343.4994"/><rect fill="#FFFFFF" height="2" style="stroke:#000000;stroke-width:1;" width="4" x="227.4142" y="347.4994"/><text fill="#000000" font-family="Arial" font-size="14" lengthAdjust="spacing" textLength="68.8242" x="155.59" y="369.4945">WS Hub 2</text></g><!--entity WS3--><g class="entity" data-qualified-name="S3.WS3" data-source-line="23" id="ent0012"><rect fill="#FFFFFF" height="46.2969" rx="2.5" ry="2.5" style="stroke:#000000;stroke-width:1;" width="108.8242" x="1637.59" y="336.4994"/><rect fill="#FFFFFF" height="10" style="stroke:#000000;stroke-width:1;" width="15" x="1726.4142" y="341.4994"/><rect fill="#FFFFFF" height="2" style="stroke:#000000;stroke-width:1;" width="4" x="1724.4142" y="343.4994"/><rect fill="#FFFFFF" height="2" style="stroke:#000000;stroke-width:1;" width="4" x="1724.4142" y="347.4994"/><text fill="#000000" font-family="Arial" font-size="14" lengthAdjust="spacing" textLength="68.8242" x="1652.59" y="369.4945">WS Hub 3</text></g><!--entity CA--><g class="entity" data-qualified-name="CA" data-source-line="7" id="ent0002"><rect fill="#FFFFFF" height="36.2969" rx="2.5" ry="2.5" style="stroke:#000000;stroke-width:1;" width="74.5576" x="1181.72" y="58.6094"/><text fill="#000000" font-family="Arial" font-size="14" lengthAdjust="spacing" textLength="54.5576" x="1191.72" y="81.6045">Client A</text></g><!--entity CB--><g class="entity" data-qualified-name="CB" data-source-line="8" id="ent0003"><rect fill="#FFFFFF" height="36.2969" rx="2.5" ry="2.5" style="stroke:#000000;stroke-width:1;" width="74.585" x="629.71" y="58.6094"/><text fill="#000000" font-family="Arial" font-size="14" lengthAdjust="spacing" textLength="54.585" x="639.71" y="81.6045">Client B</text></g><!--entity CC--><g class="entity" data-qualified-name="CC" data-source-line="9" id="ent0004"><rect fill="#FFFFFF" height="36.2969" rx="2.5" ry="2.5" style="stroke:#000000;stroke-width:1;" width="74.7559" x="1654.62" y="58.6094"/><text fill="#000000" font-family="Arial" font-size="14" lengthAdjust="spacing" textLength="54.7559" x="1664.62" y="81.6045">Client C</text></g><!--entity LB--><g class="entity" data-qualified-name="LB" data-source-line="11" id="ent0005"><polygon fill="#FFFFFF" points="1336.06,189.5594,1346.06,179.5594,1475.933,179.5594,1475.933,215.8563,1465.933,225.8563,1336.06,225.8563,1336.06,189.5594" style="stroke:#000000;stroke-width:1;"/><line style="stroke:#000000;stroke-width:1;" x1="1465.933" x2="1475.933" y1="189.5594" y2="179.5594"/><line style="stroke:#000000;stroke-width:1;" x1="1336.06" x2="1465.933" y1="189.5594" y2="189.5594"/><line style="stroke:#000000;stroke-width:1;" x1="1465.933" x2="1465.933" y1="189.5594" y2="225.8563"/><text fill="#000000" font-family="Arial" font-size="14" lengthAdjust="spacing" textLength="33.8311" x="1351.06" y="212.5545">Load</text><text fill="#000000" font-family="Arial" font-size="14" lengthAdjust="spacing" textLength="4.4502" x="1384.8911" y="212.5545">&#160;</text><text fill="#000000" font-family="Arial" font-size="14" lengthAdjust="spacing" textLength="61.5918" x="1389.3413" y="212.5545">Balancer</text></g><!--entity Redis--><g class="entity" data-qualified-name="Redis" data-source-line="26" id="ent0013"><path d="M448.08,181.9094 C448.08,171.9094 533.9965,171.9094 533.9965,171.9094 C533.9965,171.9094 619.913,171.9094 619.913,181.9094 L619.913,223.5031 C619.913,233.5031 533.9965,233.5031 533.9965,233.5031 C533.9965,233.5031 448.08,233.5031 448.08,223.5031 L448.08,181.9094" fill="#FFFFFF" style="stroke:#000000;stroke-width:1;"/><path d="M448.08,181.9094 C448.08,191.9094 533.9965,191.9094 533.9965,191.9094 C533.9965,191.9094 619.913,191.9094 619.913,181.9094" fill="none" style="stroke:#000000;stroke-width:1;"/><text fill="#000000" font-family="Arial" font-size="14" lengthAdjust="spacing" textLength="38.4111" x="458.08" y="208.9045">Redis</text><text fill="#000000" font-family="Arial" font-size="14" lengthAdjust="spacing" textLength="151.833" x="458.08" y="225.2014">Sorted Set + Pub/Sub</text></g><!--entity PG--><g class="entity" data-qualified-name="PG" data-source-line="27" id="ent0014"><path d="M803.62,489.4794 C803.62,479.4794 853.9965,479.4794 853.9965,479.4794 C853.9965,479.4794 904.3729,479.4794 904.3729,489.4794 L904.3729,514.7763 C904.3729,524.7763 853.9965,524.7763 853.9965,524.7763 C853.9965,524.7763 803.62,524.7763 803.62,514.7763 L803.62,489.4794" fill="#FFFFFF" style="stroke:#000000;stroke-width:1;"/><path d="M803.62,489.4794 C803.62,499.4794 853.9965,499.4794 853.9965,499.4794 C853.9965,499.4794 904.3729,499.4794 904.3729,489.4794" fill="none" style="stroke:#000000;stroke-width:1;"/><text fill="#000000" font-family="Arial" font-size="14" lengthAdjust="spacing" textLength="80.7529" x="813.62" y="516.4745">PostgreSQL</text></g><g class="entity" data-qualified-name="GMN31" data-source-line="51" id="ent0032"><path d="M284.36,316.8194 L284.36,402.4834 L505.6349,402.4834 L505.6349,326.8194 L495.6349,316.8194 L284.36,316.8194" fill="#FFFFFF" style="stroke:#000000;stroke-width:1;"/><path d="M495.6349,316.8194 L495.6349,326.8194 L505.6349,326.8194 L495.6349,316.8194" fill="#FFFFFF" style="stroke:#000000;stroke-width:1;"/><text fill="#000000" font-family="Arial" font-size="13" lengthAdjust="spacing" textLength="193.9019" x="290.36" y="333.8863">All server instances subscribe</text><text fill="#000000" font-family="Arial" font-size="13" lengthAdjust="spacing" textLength="195.3428" x="290.36" y="349.0191">to the same Pub/Sub channel.</text><text fill="#000000" font-family="Arial" font-size="13" lengthAdjust="spacing" textLength="183.7075" x="290.36" y="364.1519">Any instance that processes</text><text fill="#000000" font-family="Arial" font-size="13" lengthAdjust="spacing" textLength="152.0581" x="290.36" y="379.2847">a score update triggers</text><text fill="#000000" font-family="Arial" font-size="13" lengthAdjust="spacing" textLength="200.2749" x="290.36" y="394.4175">broadcast across all instances.</text></g><!--link CA to LB--><g class="link" data-entity-1="ent0002" data-entity-2="ent0005" data-link-type="dependency" data-source-line="29" id="lnk15"><path d="M1245.4,95.2594 C1278.62,117.2794 1330.7286,151.8148 1367.1386,175.9448" fill="none" id="CA-to-LB" style="stroke:#000000;stroke-width:1;"/><polygon fill="#000000" points="1372.14,179.2594,1366.8477,170.9533,1367.9722,176.4972,1362.4282,177.6218,1372.14,179.2594" style="stroke:#000000;stroke-width:1;"/><text fill="#000000" font-family="Arial" font-size="13" lengthAdjust="spacing" textLength="73.0806" x="1313" y="137.9763">WebSocket</text></g><!--link CB to LB--><g class="link" data-entity-1="ent0003" data-entity-2="ent0005" data-link-type="dependency" data-source-line="30" id="lnk16"><path d="M704.64,81.2494 C804.19,90.9294 1082.35,120.7894 1309,171.9094 C1318.11,173.9594 1321.8283,174.8 1331.1583,177.45" fill="none" id="CB-to-LB" style="stroke:#000000;stroke-width:1;"/><polygon fill="#000000" points="1336.93,179.0894,1329.3653,172.7826,1332.1202,177.7233,1327.1796,180.4782,1336.93,179.0894" style="stroke:#000000;stroke-width:1;"/><text fill="#000000" font-family="Arial" font-size="13" lengthAdjust="spacing" textLength="73.0806" x="1152" y="137.9763">WebSocket</text></g><!--link LB to WS1--><g class="link" data-entity-1="ent0005" data-entity-2="ent0007" data-link-type="dependency" data-source-line="31" id="lnk17"><path d="M1458.48,226.2294 C1484.88,240.7094 1508.01,260.4994 1491,280.4994 C1436.92,344.0994 1185.9789,355.9558 1071.8489,358.1158" fill="none" id="LB-to-WS1" style="stroke:#000000;stroke-width:1;"/><polygon fill="#000000" points="1065.85,358.2294,1074.9241,362.0584,1070.8491,358.1348,1074.7727,354.0598,1065.85,358.2294" style="stroke:#000000;stroke-width:1;"/><text fill="#000000" font-family="Arial" font-size="13" lengthAdjust="spacing" textLength="120.4341" x="1497" y="276.5663">WS conn - Client A</text></g><!--link LB to WS2--><g class="link" data-entity-1="ent0005" data-entity-2="ent0010" data-link-type="dependency" data-source-line="32" id="lnk18"><path d="M1335.61,225.8994 C1294.55,239.1094 1247.02,254.9094 1227,263.4994 C1212.2,269.8494 1210.61,276.5394 1195,280.4994 C1145.03,293.1794 314.68,268.8794 267,288.4994 C243.44,298.1994 227.0083,314.9091 214.0883,331.5591" fill="none" id="LB-to-WS2" style="stroke:#000000;stroke-width:1;"/><polygon fill="#000000" points="210.41,336.2994,219.0876,331.6412,213.4753,332.3492,212.7673,326.7368,210.41,336.2994" style="stroke:#000000;stroke-width:1;"/><text fill="#000000" font-family="Arial" font-size="13" lengthAdjust="spacing" textLength="120.4595" x="1228" y="276.5663">WS conn - Client B</text></g><!--link LB to WS3--><g class="link" data-entity-1="ent0005" data-entity-2="ent0012" data-link-type="dependency" data-source-line="33" id="lnk19"><path d="M1476.16,213.4394 C1539.5,223.4994 1626.68,240.8994 1653,263.4994 C1674.67,282.1094 1683.3247,308.7436 1687.6347,330.5136" fill="none" id="LB-to-WS3" style="stroke:#000000;stroke-width:1;"/><polygon fill="#000000" points="1688.8,336.3994,1690.976,326.7939,1687.829,331.4946,1683.1283,328.3476,1688.8,336.3994" style="stroke:#000000;stroke-width:1;"/><text fill="#000000" font-family="Arial" font-size="13" lengthAdjust="spacing" textLength="120.6182" x="1668" y="276.5663">WS conn - Client C</text></g><!--link CC to LB--><g class="link" data-entity-1="ent0004" data-entity-2="ent0005" data-link-type="dependency" data-source-line="35" id="lnk20"><path d="M1654.32,94.0894 C1604.03,115.8794 1520.2752,152.1834 1463.5852,176.7534" fill="none" id="CC-to-LB" style="stroke:#000000;stroke-width:1;"/><polygon fill="#000000" points="1458.08,179.1394,1467.9284,179.2305,1462.6677,177.151,1464.7471,171.8903,1458.08,179.1394" style="stroke:#000000;stroke-width:1;"/><text fill="#000000" font-family="Arial" font-size="13" lengthAdjust="spacing" textLength="134.9512" x="1584" y="137.9763">POST /scores/update</text></g><!--link LB to SS1--><g class="link" data-entity-1="ent0005" data-entity-2="ent0008" data-link-type="dependency" data-source-line="36" id="lnk21"><path d="M1398.4,226.3294 C1390.96,244.5294 1377.69,268.8994 1357,280.4994 C1336.74,291.8594 960.78,280.4394 939,288.4994 C912.8,298.1994 892.9646,315.2919 877.2046,331.9419" fill="none" id="LB-to-SS1" style="stroke:#000000;stroke-width:1;"/><polygon fill="#000000" points="873.08,336.2994,882.1719,332.5128,876.5172,332.6681,876.3619,327.0134,873.08,336.2994" style="stroke:#000000;stroke-width:1;"/><text fill="#000000" font-family="Arial" font-size="13" lengthAdjust="spacing" textLength="92.1553" x="1376" y="276.5663">Route request</text></g><!--link SS1 to PG--><g class="link" data-entity-1="ent0008" data-entity-2="ent0014" data-link-type="dependency" data-source-line="38" id="lnk22"><path d="M854,383.2194 C854,409.5894 854,446.9394 854,473.0794" fill="none" id="SS1-to-PG" style="stroke:#000000;stroke-width:1;"/><polygon fill="#000000" points="854,479.0794,858,470.0794,854,474.0794,850,470.0794,854,479.0794" style="stroke:#000000;stroke-width:1;"/><text fill="#000000" font-family="Arial" font-size="13" lengthAdjust="spacing" textLength="105.2441" x="855" y="445.5463">Atomic DB write</text></g><!--link SS1 to Redis--><g class="link" data-entity-1="ent0008" data-entity-2="ent0013" data-link-type="dependency" data-source-line="39" id="lnk23"><path d="M785.91,342.1394 C719.25,326.4694 614.64,303.1994 523,288.4994 C506.89,285.9194 460.89,292.6494 450,280.4994 C435.36,264.1694 444.2158,250.8847 464.5958,237.3147" fill="none" id="SS1-to-Redis" style="stroke:#000000;stroke-width:1;"/><polygon fill="#000000" points="469.59,233.9894,459.8818,235.648,465.4282,236.7605,464.3156,242.3069,469.59,233.9894" style="stroke:#000000;stroke-width:1;"/><text fill="#000000" font-family="Arial" font-size="13" lengthAdjust="spacing" textLength="120.8911" x="451" y="276.5663">ZADD leaderboard</text></g><!--link SS1 to Redis--><g class="link" data-entity-1="ent0008" data-entity-2="ent0013" data-link-type="dependency" data-source-line="40" id="lnk24"><path d="M785.73,345.5494 C735.17,333.7794 665.99,313.2294 612,280.4994 C591.69,268.1894 576.6193,254.0532 562.4193,238.2432" fill="none" id="SS1-to-Redis-1" style="stroke:#000000;stroke-width:1;"/><polygon fill="#000000" points="558.41,233.7794,561.448,243.148,561.7511,237.4992,567.3998,237.8023,558.41,233.7794" style="stroke:#000000;stroke-width:1;"/><text fill="#000000" font-family="Arial" font-size="13" lengthAdjust="spacing" textLength="190.436" x="613" y="276.5663">PUBLISH scoreboard_channel</text></g><!--link Redis to WS1--><g class="link" data-entity-1="ent0013" data-entity-2="ent0007" data-link-type="dependency" data-source-line="42" id="lnk25"><path d="M620.21,217.3494 C674.87,227.2594 746.58,242.5994 808,263.4994 C824.75,269.1994 826.91,275.9094 844,280.4994 C884.92,291.4994 900.45,270.9094 939,288.4994 C961.86,298.9394 978.0373,315.1478 991.0873,331.4278" fill="none" id="Redis-to-WS1" style="stroke:#000000;stroke-width:1;"/><polygon fill="#000000" points="994.84,336.1094,992.332,326.5852,991.7127,332.2081,986.0899,331.5888,994.84,336.1094" style="stroke:#000000;stroke-width:1;"/><text fill="#000000" font-family="Arial" font-size="13" lengthAdjust="spacing" textLength="131.3774" x="845" y="276.5663">SUBSCRIBE callback</text></g><!--link Redis to WS2--><g class="link" data-entity-1="ent0013" data-entity-2="ent0010" data-link-type="dependency" data-source-line="43" id="lnk26"><path d="M447.59,207.8994 C392.23,214.0794 320.93,228.8094 267,263.4994 C239.13,281.4294 220.8349,308.8475 208.8849,330.8375" fill="none" id="Redis-to-WS2" style="stroke:#000000;stroke-width:1;"/><polygon fill="#000000" points="206.02,336.1094,213.8319,330.1115,208.4074,331.7162,206.8027,326.2917,206.02,336.1094" style="stroke:#000000;stroke-width:1;"/><text fill="#000000" font-family="Arial" font-size="13" lengthAdjust="spacing" textLength="131.3774" x="268" y="276.5663">SUBSCRIBE callback</text></g><!--link Redis to WS3--><g class="link" data-entity-1="ent0013" data-entity-2="ent0012" data-link-type="dependency" data-source-line="44" id="lnk27"><path d="M620.02,213.0294 C710.28,223.3294 856.1,241.3994 981,263.4994 C1015.51,269.6094 1023.46,274.5694 1058,280.4994 C1271.14,317.0794 1521.4567,342.7143 1631.4967,353.1243" fill="none" id="Redis-to-WS3" style="stroke:#000000;stroke-width:1;"/><polygon fill="#000000" points="1637.47,353.6894,1628.8867,348.8595,1632.4922,353.2185,1628.1333,356.824,1637.47,353.6894" style="stroke:#000000;stroke-width:1;"/><text fill="#000000" font-family="Arial" font-size="13" lengthAdjust="spacing" textLength="131.3774" x="1059" y="276.5663">SUBSCRIBE callback</text></g><!--link WS1 to CA--><g class="link" data-entity-1="ent0007" data-entity-2="ent0002" data-link-type="dependency" data-source-line="46" id="lnk28"><path d="M1065.91,340.2194 C1095.74,327.6494 1131.12,308.1994 1154,280.4994 C1166.21,265.7194 1199.7282,147.4816 1212.5982,101.0216" fill="none" id="WS1-to-CA" style="stroke:#000000;stroke-width:1;"/><polygon fill="#000000" points="1214.2,95.2394,1207.9425,102.8449,1212.8652,100.0579,1215.6522,104.9806,1214.2,95.2394" style="stroke:#000000;stroke-width:1;"/><text fill="#000000" font-family="Arial" font-size="13" lengthAdjust="spacing" textLength="123.1699" x="1193" y="207.2763">scoreboard:update</text></g><!--link WS2 to CB--><g class="link" data-entity-1="ent0010" data-entity-2="ent0003" data-link-type="dependency" data-source-line="47" id="lnk29"><path d="M201.41,336.1694 C214.13,295.9894 246.59,212.3094 306,171.9094 C408.57,102.1594 553.7035,84.4817 623.3435,79.8017" fill="none" id="WS2-to-CB" style="stroke:#000000;stroke-width:1;"/><polygon fill="#000000" points="629.33,79.3994,620.082,76.0118,624.3413,79.7346,620.6185,83.9938,629.33,79.3994" style="stroke:#000000;stroke-width:1;"/><text fill="#000000" font-family="Arial" font-size="13" lengthAdjust="spacing" textLength="123.1699" x="307" y="207.2763">scoreboard:update</text></g><!--link WS3 to CC--><g class="link" data-entity-1="ent0012" data-entity-2="ent0004" data-link-type="dependency" data-source-line="48" id="lnk30"><path d="M1746.35,336.0894 C1775.73,319.9494 1804.61,295.4494 1797,263.4994 C1780.78,195.3994 1735.0032,131.3144 1710.2032,99.9744" fill="none" id="WS3-to-CC" style="stroke:#000000;stroke-width:1;"/><polygon fill="#000000" points="1706.48,95.2694,1708.9281,104.8091,1709.5827,99.1903,1715.2015,99.8448,1706.48,95.2694" style="stroke:#000000;stroke-width:1;"/><text fill="#000000" font-family="Arial" font-size="13" lengthAdjust="spacing" textLength="123.1699" x="1788" y="207.2763">scoreboard:update</text></g><!--link Redis to GMN31--><g class="link" data-entity-1="ent0013" data-entity-2="ent0032" data-link-type="association" data-source-line="51" id="lnk33"><path d="M451.93,233.8394 C438.71,241.7594 426.33,251.5394 417,263.4994 C405.32,278.4694 399.64,298.5494 396.96,316.4094" fill="none" id="Redis-GMN31" style="stroke:#000000;stroke-width:1;stroke-dasharray:7,7;"/></g><?plantuml-src XPJ1ZjCm48RlVegX756tQdFh0Ib9sMsb0g5cLGaX8SUPxLfrxM8xYm3nxeoJjEcAT55ky_t-Pp8pzglmY0U4enRACBzNvYYSE40fv7xdR6sgt6hhuFLj6hyBHOKFejRXrfhmGP13wfJGZ0KLDCBIElMBYD30fT3Ax60CxqcknYlZWp0IOOibjtAF0J9dHIM53_2a16omKXwAkfpmkcJCeIJzZan7kLPe0gGZ41xoT01bBSe6KDwYd35ZAmglAITaGiTQNCFMsOcbnGeukYTqS2vtscZu57up06aFHskYxMZBOLcN7TxowNFAfNNOU2c9hGD9_hoKQDRAPbSIpRf4ivTTajObkUAIT2v9TAb44ANmvDJq_glXrWMio3F0czCacWCDlz0NreUTG_vftU3YZh4yXV7uBJKJvls8MPuDHTTjbBeMmvpgD8OMvJJddi-6UDRpP8ZJgFEyJrjyv9zXukD0_AG-qa_WoO0t1Mni7H0SVg_H1yPYCCBYZbWQx459M6JmmoawU8BjiixXIxfOW4PHeIkjSDK_Wk8-Mw_u4fhyZUIRV1J68DsPLjDtWjzdFD-iidT0TqV7g_XCClk_91cMi6rN5GrfVb7Al6j7z6vmTWKdBSu7CMqZzQ-qWNe5zg5R5e1KQ_3jUgfkFJtuklJIgH9942pGAmG-FYFTja7Nd9jutlmy7oIX271qbZmyHdVHLW9j4H2SsktGHLAUdnKXdVKUg0rz1JSCJGMnvBy0?></g></svg>